<svg width="50" height="50" viewBox="0 0 50 50" fill="none" xmlns="http://www.w3.org/2000/svg">
<rect width="50" height="50" rx="15.7895" fill="#F4F7FF"/>
<path d="M23.6706 21.0106H28.9897C29.3423 21.0106 29.6806 20.8705 29.93 20.6211C30.1793 20.3718 30.3194 20.0335 30.3194 19.6809C30.3194 19.3282 30.1793 18.99 29.93 18.7406C29.6806 18.4912 29.3423 18.3511 28.9897 18.3511H26.3302V17.0214C26.3302 16.6687 26.1901 16.3304 25.9407 16.0811C25.6913 15.8317 25.3531 15.6916 25.0004 15.6916C24.6477 15.6916 24.3095 15.8317 24.0601 16.0811C23.8107 16.3304 23.6706 16.6687 23.6706 17.0214V18.3511C22.6126 18.3511 21.5979 18.7714 20.8498 19.5195C20.1017 20.2677 19.6814 21.2824 19.6814 22.3404C19.6814 23.3984 20.1017 24.4131 20.8498 25.1612C21.5979 25.9094 22.6126 26.3297 23.6706 26.3297H26.3302C26.6828 26.3297 27.0211 26.4698 27.2704 26.7191C27.5198 26.9685 27.6599 27.3067 27.6599 27.6594C27.6599 28.0121 27.5198 28.3503 27.2704 28.5997C27.0211 28.8491 26.6828 28.9892 26.3302 28.9892H21.0111C20.6584 28.9892 20.3202 29.1293 20.0708 29.3787C19.8215 29.628 19.6814 29.9663 19.6814 30.3189C19.6814 30.6716 19.8215 31.0098 20.0708 31.2592C20.3202 31.5086 20.6584 31.6487 21.0111 31.6487H23.6706V32.9785C23.6706 33.3311 23.8107 33.6694 24.0601 33.9187C24.3095 34.1681 24.6477 34.3082 25.0004 34.3082C25.3531 34.3082 25.6913 34.1681 25.9407 33.9187C26.1901 33.6694 26.3302 33.3311 26.3302 32.9785V31.6487C27.3882 31.6487 28.4029 31.2284 29.151 30.4803C29.8991 29.7321 30.3194 28.7174 30.3194 27.6594C30.3194 26.6014 29.8991 25.5867 29.151 24.8386C28.4029 24.0904 27.3882 23.6701 26.3302 23.6701H23.6706C23.318 23.6701 22.9797 23.53 22.7304 23.2807C22.481 23.0313 22.3409 22.6931 22.3409 22.3404C22.3409 21.9877 22.481 21.6495 22.7304 21.4001C22.9797 21.1507 23.318 21.0106 23.6706 21.0106V21.0106ZM25.0004 10.3726C22.1074 10.3726 19.2793 11.2304 16.8739 12.8377C14.4684 14.445 12.5936 16.7295 11.4865 19.4023C10.3794 22.0751 10.0897 25.0161 10.6541 27.8536C11.2185 30.691 12.6116 33.2973 14.6573 35.343C16.703 37.3887 19.3093 38.7818 22.1467 39.3462C24.9842 39.9106 27.9252 39.6209 30.598 38.5138C33.2708 37.4067 35.5553 35.5319 37.1626 33.1264C38.7699 30.721 39.6277 27.8929 39.6277 24.9999C39.6277 21.1205 38.0867 17.4 35.3435 14.6568C32.6003 11.9136 28.8798 10.3726 25.0004 10.3726V10.3726ZM25.0004 36.9677C22.6334 36.9677 20.3195 36.2658 18.3514 34.9508C16.3833 33.6357 14.8494 31.7666 13.9436 29.5798C13.0378 27.393 12.8007 24.9866 13.2625 22.6651C13.7243 20.3436 14.8641 18.2111 16.5379 16.5374C18.2116 14.8636 20.3441 13.7238 22.6656 13.262C24.9871 12.8003 27.3935 13.0373 29.5803 13.9431C31.7671 14.8489 33.6362 16.3828 34.9513 18.3509C36.2663 20.319 36.9682 22.6329 36.9682 24.9999C36.9682 28.174 35.7073 31.218 33.4629 33.4624C31.2185 35.7068 28.1745 36.9677 25.0004 36.9677V36.9677Z" fill="#1476FF"/>
</svg>
