<svg width="24" height="24" viewBox="0 0 24 24" fill="none" xmlns="http://www.w3.org/2000/svg">
<path fill-rule="evenodd" clip-rule="evenodd" d="M16.6865 2H7.30963C4.0453 2 1.99805 4.31278 1.99805 7.58578V16.4142C1.99805 19.6872 4.03663 22 7.30963 22H16.681C19.9595 22 21.997 19.6872 21.997 16.4142V7.58578C22.0013 4.31278 19.9627 2 16.6865 2Z" stroke="#9240FB" stroke-width="1.4" stroke-linecap="round" stroke-linejoin="round"/>
<path fill-rule="evenodd" clip-rule="evenodd" d="M10.6175 8.54069C10.6175 9.64614 9.72231 10.5413 8.61686 10.5413C7.51249 10.5413 6.61621 9.64614 6.61621 8.54069C6.61621 7.43524 7.51249 6.54004 8.61686 6.54004C9.72123 6.54112 10.6164 7.43632 10.6175 8.54069Z" stroke="#9240FB" stroke-width="1.4" stroke-linecap="round" stroke-linejoin="round"/>
<path d="M22.0018 15.2236C21.0014 14.194 19.0777 12.1143 16.986 12.1143C14.8933 12.1143 13.687 16.7019 11.6745 16.7019C9.66188 16.7019 7.83355 14.6275 6.22089 15.9573C4.60823 17.286 3.08228 20.0031 3.08228 20.0031" stroke="#9240FB" stroke-width="1.4" stroke-linecap="round" stroke-linejoin="round"/>
</svg>
