<svg width="64" height="64" viewBox="0 0 64 64" fill="none" xmlns="http://www.w3.org/2000/svg">
<rect width="64" height="64" rx="16.0999" fill="#0A66C2"/>
<path d="M17.7096 20.9166C17.7096 19.9873 18.036 19.2207 18.6886 18.6166C19.3413 18.0126 20.1899 17.7106 21.2342 17.7106C22.2598 17.7106 23.0897 18.0079 23.7237 18.6027C24.3764 19.216 24.7028 20.0152 24.7028 21.0003C24.7028 21.8924 24.3858 22.6358 23.7517 23.2305C23.099 23.8439 22.2412 24.1505 21.1782 24.1505H21.1502C20.1246 24.1505 19.2947 23.8439 18.6607 23.2305C18.0266 22.6172 17.7096 21.8459 17.7096 20.9166ZM18.0732 45.3103V26.6875H24.2832V45.3103H18.0732ZM27.7238 45.3103H33.9338V34.9116C33.9338 34.2611 34.0084 33.7593 34.1576 33.4062C34.4186 32.7743 34.8149 32.2399 35.3464 31.8032C35.8779 31.3664 36.5445 31.148 37.3464 31.148C39.4351 31.148 40.4794 32.5512 40.4794 35.3577V45.3103H46.6893V34.6329C46.6893 31.8822 46.0366 29.7959 44.7312 28.3741C43.4258 26.9523 41.7009 26.2414 39.5563 26.2414C37.1506 26.2414 35.2765 27.2729 33.9338 29.3359V29.3917H33.9058L33.9338 29.3359V26.6875H27.7238C27.7611 27.2822 27.7798 29.1315 27.7798 32.2353C27.7798 35.3391 27.7611 39.6974 27.7238 45.3103Z" fill="white"/>
</svg>
