<svg width="40" height="40" viewBox="0 0 40 40" fill="none" xmlns="http://www.w3.org/2000/svg">
<mask id="mask0_2536_57969" style="mask-type:alpha" maskUnits="userSpaceOnUse" x="0" y="0" width="40" height="40">
<rect width="40" height="40" rx="20" fill="#1476FF"/>
</mask>
<g mask="url(#mask0_2536_57969)">
<rect width="40" height="40" rx="20" fill="#F4F7FF"/>
<rect x="-0.303711" y="0.359375" width="40" height="40" rx="8.88889" fill="#F4F7FF"/>
<path fill-rule="evenodd" clip-rule="evenodd" d="M12.8501 14.0718C12.0114 14.0718 11.3316 14.7517 11.3316 15.5903V26.1087C11.3316 26.9474 12.0114 27.6272 12.8501 27.6272H28.6277C29.4664 27.6272 30.1462 26.9474 30.1462 26.1087V15.5903C30.1462 14.7517 29.4664 14.0718 28.6277 14.0718H12.8501ZM9.10938 15.5903C9.10938 13.5244 10.7841 11.8496 12.8501 11.8496H28.6277C30.6937 11.8496 32.3684 13.5244 32.3684 15.5903V26.1087C32.3684 28.1747 30.6937 29.8495 28.6277 29.8495H12.8501C10.7841 29.8495 9.10938 28.1747 9.10938 26.1087V15.5903Z" fill="#1476FF"/>
<path fill-rule="evenodd" clip-rule="evenodd" d="M9.10938 18.2205C9.10938 17.6068 9.60684 17.1094 10.2205 17.1094H31.2573C31.871 17.1094 32.3684 17.6068 32.3684 18.2205C32.3684 18.8341 31.871 19.3316 31.2573 19.3316H10.2205C9.60684 19.3316 9.10938 18.8341 9.10938 18.2205Z" fill="#1476FF"/>
<path fill-rule="evenodd" clip-rule="evenodd" d="M22.2573 23.4803C22.2573 22.8666 22.7548 22.3691 23.3684 22.3691H25.998C26.6117 22.3691 27.1091 22.8666 27.1091 23.4803C27.1091 24.0939 26.6117 24.5914 25.998 24.5914H23.3684C22.7548 24.5914 22.2573 24.0939 22.2573 23.4803Z" fill="#1476FF"/>
</g>
</svg>
