<svg width="64" height="64" viewBox="0 0 64 64" fill="none" xmlns="http://www.w3.org/2000/svg">
<rect x="0.804993" y="0.804993" width="62.39" height="62.39" rx="15.2949" fill="white"/>
<path d="M48.832 23.5264C48.6295 22.7798 48.2352 22.0992 47.6882 21.5523C47.1413 21.0053 46.4607 20.611 45.7141 20.4085C42.9806 19.6621 31.9784 19.6621 31.9784 19.6621C31.9784 19.6621 20.9756 19.6841 18.2416 20.4305C17.495 20.633 16.8144 21.0273 16.2674 21.5743C15.7205 22.1212 15.3261 22.8018 15.1236 23.5484C14.4004 26.2825 14.4004 31.9986 14.4004 31.9986C14.4004 31.9986 14.4004 37.7148 15.1462 40.4708C15.3487 41.2174 15.743 41.898 16.29 42.445C16.837 42.9919 17.5176 43.3863 18.2641 43.5888C20.9976 44.3351 32.0004 44.3351 32.0004 44.3351C32.0004 44.3351 43.0031 44.3351 45.7372 43.5893C46.4838 43.3868 47.1644 42.9925 47.7113 42.4455C48.2583 41.8985 48.6526 41.2179 48.8551 40.4714C49.6004 37.7373 49.6004 31.9986 49.6004 31.9986C49.6004 31.9986 49.5784 26.2825 48.832 23.5264Z" fill="#FF0000"/>
<path d="M28.4742 37.2855L37.6014 31.9989L28.4736 26.7123L28.4742 37.2855Z" fill="white"/>
<rect x="0.804993" y="0.804993" width="62.39" height="62.39" rx="15.2949" stroke="#E9EAF3" stroke-width="1.60999"/>
</svg>
