<svg width="52" height="52" viewBox="0 0 52 52" fill="none" xmlns="http://www.w3.org/2000/svg">
<rect width="52" height="52" rx="11" fill="#1DA1F2"/>
<path d="M20.5418 37.9526C31.6441 37.9526 37.7165 28.7545 37.7165 20.778C37.7165 20.5166 37.7165 20.2566 37.6989 19.9965C38.8801 19.1424 39.8999 18.0848 40.7104 16.8733C39.6088 17.3614 38.4401 17.6816 37.2435 17.823C38.5035 17.0687 39.4466 15.8822 39.8972 14.4844C38.7123 15.1875 37.416 15.683 36.0642 15.9495C35.1541 14.9818 33.9505 14.341 32.6395 14.1263C31.3285 13.9116 29.9833 14.135 28.8121 14.7618C27.6409 15.3886 26.7088 16.384 26.1603 17.5939C25.6118 18.8038 25.4773 20.1607 25.7776 21.4548C23.3777 21.3344 21.03 20.7108 18.8868 19.6243C16.7436 18.5377 14.8529 17.0127 13.3373 15.148C12.5654 16.4768 12.329 18.0499 12.6761 19.5469C13.0233 21.0439 13.928 22.3523 15.206 23.2058C14.2454 23.1773 13.3058 22.9182 12.4664 22.4502V22.5267C12.4668 23.9203 12.9492 25.2709 13.8318 26.3494C14.7145 27.4279 15.9431 28.1679 17.3091 28.4438C16.4204 28.6862 15.488 28.7216 14.5835 28.5474C14.9692 29.7468 15.7202 30.7956 16.7313 31.5472C17.7425 32.2988 18.9633 32.7156 20.2229 32.7393C18.0855 34.4191 15.445 35.3311 12.7265 35.3283C12.2462 35.3274 11.7664 35.2983 11.2896 35.2412C14.05 37.0127 17.2619 37.9523 20.5418 37.9479" fill="white"/>
</svg>
