<svg width="32" height="32" viewBox="0 0 32 32" fill="none" xmlns="http://www.w3.org/2000/svg">
<rect width="32" height="32" rx="16" fill="#1ED760"/>
<path d="M15.7436 6.1709C10.3636 6.1709 6.00195 10.5324 6.00195 15.9125C6.00195 21.2928 10.3636 25.6539 15.7436 25.6539C21.1243 25.6539 25.4854 21.2928 25.4854 15.9125C25.4854 10.5327 21.1243 6.17136 15.7435 6.17136L15.7436 6.1709ZM20.2111 20.221C20.0366 20.5072 19.662 20.5979 19.3759 20.4223C17.0886 19.0252 14.2093 18.7088 10.8183 19.4835C10.4915 19.558 10.1658 19.3532 10.0914 19.0263C10.0166 18.6994 10.2205 18.3737 10.5481 18.2993C14.2589 17.4515 17.442 17.8165 20.0098 19.3858C20.296 19.5614 20.3868 19.9349 20.2111 20.221ZM21.4035 17.5685C21.1836 17.9259 20.716 18.0387 20.3588 17.8188C17.7403 16.2093 13.7487 15.7432 10.6515 16.6834C10.2498 16.8047 9.82555 16.5783 9.70363 16.1773C9.58265 15.7757 9.80914 15.3522 10.2101 15.2301C13.748 14.1566 18.1463 14.6766 21.1534 16.5245C21.5105 16.7443 21.6233 17.2118 21.4035 17.5685ZM21.5058 14.8064C18.3661 12.9416 13.186 12.7701 10.1884 13.6799C9.70701 13.8259 9.19795 13.5541 9.05208 13.0728C8.9062 12.5912 9.17771 12.0825 9.65943 11.9361C13.1005 10.8915 18.821 11.0933 22.4358 13.2392C22.8697 13.4962 23.0116 14.0554 22.7545 14.4878C22.4986 14.9208 21.9379 15.0635 21.5063 14.8064H21.5058Z" fill="white"/>
</svg>
