<svg width="72" height="72" viewBox="0 0 72 72" fill="none" xmlns="http://www.w3.org/2000/svg">
<rect width="72" height="72" rx="16" fill="#EDFBEE"/>
<path fill-rule="evenodd" clip-rule="evenodd" d="M36 56C47.0457 56 56 47.0457 56 36C56 24.9543 47.0457 16 36 16C24.9543 16 16 24.9543 16 36C16 47.0457 24.9543 56 36 56ZM36 60C49.2548 60 60 49.2548 60 36C60 22.7452 49.2548 12 36 12C22.7452 12 12 22.7452 12 36C12 49.2548 22.7452 60 36 60Z" fill="#45C74E"/>
<path fill-rule="evenodd" clip-rule="evenodd" d="M44.4396 30.1116C45.2064 30.9067 45.1834 32.1728 44.3884 32.9396L35.0564 41.9396C34.2817 42.6867 33.0547 42.6868 32.2799 41.9399L27.6119 37.4399C26.8167 36.6733 26.7935 35.4072 27.5601 34.6119C28.3267 33.8167 29.5928 33.7935 30.3881 34.5601L33.6677 37.7217L41.6116 30.0604C42.4067 29.2936 43.6728 29.3166 44.4396 30.1116Z" fill="#45C74E"/>
</svg>
