<svg width="40" height="40" viewBox="0 0 40 40" fill="none" xmlns="http://www.w3.org/2000/svg">
<mask id="mask0_2536_57970" style="mask-type:alpha" maskUnits="userSpaceOnUse" x="0" y="0" width="40" height="40">
<rect width="40" height="40" rx="20" fill="#1476FF"/>
</mask>
<g mask="url(#mask0_2536_57970)">
<rect width="40" height="40" fill="#E4FAED"/>
<path d="M18.9359 16.8093H23.1912C23.4733 16.8093 23.7439 16.6972 23.9434 16.4977C24.1429 16.2982 24.255 16.0276 24.255 15.7455C24.255 15.4633 24.1429 15.1928 23.9434 14.9933C23.7439 14.7937 23.4733 14.6817 23.1912 14.6817H21.0635V13.6179C21.0635 13.3357 20.9515 13.0651 20.752 12.8656C20.5525 12.6661 20.2819 12.5541 19.9997 12.5541C19.7176 12.5541 19.447 12.6661 19.2475 12.8656C19.048 13.0651 18.9359 13.3357 18.9359 13.6179V14.6817C18.0895 14.6817 17.2778 15.0179 16.6792 15.6164C16.0807 16.2149 15.7445 17.0267 15.7445 17.8731C15.7445 18.7195 16.0807 19.5313 16.6792 20.1298C17.2778 20.7283 18.0895 21.0645 18.9359 21.0645H21.0635C21.3457 21.0645 21.6163 21.1766 21.8158 21.3761C22.0153 21.5756 22.1273 21.8462 22.1273 22.1283C22.1273 22.4105 22.0153 22.681 21.8158 22.8805C21.6163 23.08 21.3457 23.1921 21.0635 23.1921H16.8083C16.5262 23.1921 16.2556 23.3042 16.0561 23.5037C15.8566 23.7032 15.7445 23.9738 15.7445 24.2559C15.7445 24.5381 15.8566 24.8087 16.0561 25.0082C16.2556 25.2077 16.5262 25.3197 16.8083 25.3197H18.9359V26.3835C18.9359 26.6657 19.048 26.9363 19.2475 27.1358C19.447 27.3353 19.7176 27.4474 19.9997 27.4474C20.2819 27.4474 20.5525 27.3353 20.752 27.1358C20.9515 26.9363 21.0635 26.6657 21.0635 26.3835V25.3197C21.91 25.3197 22.7217 24.9835 23.3202 24.385C23.9187 23.7865 24.255 22.9747 24.255 22.1283C24.255 21.2819 23.9187 20.4701 23.3202 19.8716C22.7217 19.2731 21.91 18.9369 21.0635 18.9369H18.9359C18.6538 18.9369 18.3832 18.8248 18.1837 18.6253C17.9842 18.4258 17.8721 18.1552 17.8721 17.8731C17.8721 17.591 17.9842 17.3204 18.1837 17.1209C18.3832 16.9214 18.6538 16.8093 18.9359 16.8093V16.8093ZM19.9997 8.29883C17.6853 8.29883 15.4229 8.98513 13.4985 10.2709C11.5742 11.5568 10.0743 13.3844 9.18861 15.5226C8.30292 17.6608 8.07119 20.0137 8.52271 22.2836C8.97422 24.5536 10.0887 26.6386 11.7253 28.2752C13.3618 29.9117 15.4469 31.0262 17.7168 31.4777C19.9868 31.9292 22.3396 31.6975 24.4778 30.8118C26.6161 29.9261 28.4437 28.4263 29.7295 26.5019C31.0153 24.5776 31.7016 22.3151 31.7016 20.0007C31.7016 16.8972 30.4687 13.9208 28.2742 11.7262C26.0797 9.5317 23.1033 8.29883 19.9997 8.29883V8.29883ZM19.9997 29.575C18.1061 29.575 16.255 29.0134 14.6806 27.9614C13.1061 26.9094 11.8789 25.4141 11.1543 23.6646C10.4296 21.9151 10.24 19.9901 10.6094 18.1329C10.9789 16.2756 11.8907 14.5697 13.2297 13.2307C14.5687 11.8917 16.2747 10.9798 18.1319 10.6104C19.9891 10.241 21.9142 10.4306 23.6636 11.1552C25.4131 11.8799 26.9084 13.107 27.9604 14.6815C29.0125 16.256 29.574 18.1071 29.574 20.0007C29.574 22.54 28.5653 24.9752 26.7698 26.7707C24.9742 28.5663 22.539 29.575 19.9997 29.575V29.575Z" fill="#14CA74"/>
</g>
</svg>
