<svg width="64" height="64" viewBox="0 0 64 64" fill="none" xmlns="http://www.w3.org/2000/svg">
<rect width="64" height="64" rx="16.0999" fill="#FF550D"/>
<path d="M49.2339 31.0556C49.2391 31.4098 49.1951 31.7633 49.1021 32.1052C49.009 32.447 48.8681 32.7747 48.6833 33.0771C48.4991 33.3796 48.2729 33.6549 48.0118 33.8947C47.7507 34.1344 47.4573 34.3361 47.14 34.4938C47.1471 34.5881 47.1529 34.6831 47.1562 34.7781C47.1639 34.9676 47.1639 35.1573 47.1562 35.3468C47.1529 35.4418 47.1471 35.5368 47.14 35.6312C47.14 41.4218 40.393 46.1266 32.069 46.1266C23.7451 46.1266 16.998 41.4218 16.998 35.6312C16.9909 35.5368 16.9851 35.4418 16.9819 35.3468C16.9741 35.1573 16.9741 34.9676 16.9819 34.7781C16.9851 34.6831 16.9909 34.5881 16.998 34.4938C16.5009 34.2652 16.0593 33.9314 15.7039 33.5154C15.3485 33.0994 15.0878 32.6112 14.9397 32.0845C14.7918 31.5575 14.7603 31.0047 14.8474 30.4644C14.9344 29.9241 15.1379 29.4091 15.4437 28.9552C15.7493 28.5014 16.15 28.1196 16.6179 27.8361C17.0858 27.5527 17.6098 27.3744 18.1536 27.3137C18.6973 27.2528 19.2479 27.3108 19.767 27.4838C20.2861 27.6567 20.7614 27.9405 21.16 28.3154C21.8999 27.8139 22.675 27.3666 23.4795 26.977C24.2841 26.588 25.1158 26.2571 25.9682 25.9882C26.8207 25.7194 27.6918 25.5132 28.574 25.3704C29.4562 25.2276 30.348 25.1494 31.2418 25.1358L33.1547 16.1656C33.1761 16.0615 33.2181 15.9633 33.2782 15.8754C33.3376 15.7882 33.4145 15.7132 33.5031 15.6557C33.5923 15.5982 33.6918 15.5587 33.7965 15.5393C33.9005 15.5206 34.0078 15.5225 34.1112 15.5452L40.4447 16.8118C41.0838 15.7138 42.4255 15.2434 43.6101 15.7009C44.7947 16.1585 45.472 17.409 45.207 18.6511C44.9427 19.8933 43.8143 20.7593 42.5463 20.694C41.2777 20.6287 40.2443 19.6516 40.1086 18.3887L34.5765 17.2255L32.8962 25.2909C33.779 25.3096 34.6599 25.3924 35.5311 25.5378C37.2756 25.8286 38.9691 26.3697 40.559 27.1444C41.3532 27.5309 42.1184 27.9741 42.8488 28.4705C43.3739 27.9663 44.0339 27.6249 44.7488 27.4876C45.4638 27.3497 46.2034 27.4218 46.8783 27.695C47.5533 27.9681 48.1348 28.4307 48.5527 29.027C48.9708 29.6233 49.2074 30.3278 49.2339 31.0556ZM23.5796 34.6301C23.7102 34.9436 23.9002 35.2286 24.1406 35.4683C24.3804 35.7087 24.6654 35.8988 24.9788 36.0293C25.2925 36.159 25.6287 36.2258 25.9682 36.2258C27.0139 36.2258 27.9562 35.5956 28.3568 34.6301C28.7569 33.664 28.5352 32.5524 27.7959 31.813C27.0566 31.0737 25.945 30.852 24.9788 31.2521C24.0133 31.6528 23.3832 32.595 23.3832 33.6407C23.3832 33.98 23.4497 34.316 23.5796 34.6301ZM38.3856 40.8356C38.5181 40.7063 38.5937 40.5299 38.5963 40.3451C38.5989 40.1596 38.5272 39.9812 38.3979 39.8487C38.2687 39.7163 38.0922 39.6406 37.9074 39.6381C37.7219 39.6355 37.5436 39.7072 37.3943 39.819C37.0056 40.0978 36.5939 40.3432 36.1638 40.5525C35.7336 40.762 35.2865 40.9347 34.8273 41.0689C34.3684 41.2027 33.8986 41.2977 33.4236 41.3526C32.9479 41.4075 32.4691 41.4218 31.9915 41.3959C31.5145 41.4172 31.0363 41.3979 30.5626 41.3384C30.0887 41.2795 29.6208 41.1801 29.164 41.0411C28.7065 40.9028 28.2625 40.7257 27.8353 40.5125C27.4081 40.2992 26.9997 40.0497 26.6145 39.7673C26.4807 39.6574 26.3108 39.6012 26.1376 39.6096C25.9644 39.618 25.8009 39.6911 25.6781 39.8132C25.5559 39.936 25.4829 40.0995 25.4745 40.2727C25.4661 40.4459 25.5223 40.6159 25.6322 40.7496C26.0865 41.0922 26.5693 41.3946 27.0753 41.6544C27.5813 41.9142 28.1093 42.1294 28.6522 42.2987C29.1951 42.4681 29.7515 42.5902 30.3157 42.6645C30.8799 42.7382 31.4492 42.7634 32.0173 42.7402C32.5854 42.7634 33.1547 42.7382 33.7189 42.6645C34.849 42.5159 35.945 42.1742 36.9593 41.6544C37.4654 41.3946 37.9481 41.0922 38.4025 40.7496L38.3856 40.8356ZM37.9113 36.4326C38.2616 36.4364 38.6093 36.3686 38.933 36.2342C39.2568 36.0991 39.5496 35.9 39.7939 35.6486C40.0382 35.3972 40.2282 35.0987 40.3535 34.771C40.479 34.4437 40.5364 34.0943 40.5222 33.7441C40.5222 32.6984 39.8921 31.7562 38.9266 31.3555C37.9604 30.9554 36.8488 31.1771 36.1095 31.9164C35.3702 32.6558 35.1485 33.7674 35.5485 34.7335C35.9492 35.6991 36.8915 36.3292 37.9371 36.3292L37.9113 36.4326Z" fill="white"/>
</svg>
