<svg width="52" height="52" viewBox="0 0 52 52" fill="none" xmlns="http://www.w3.org/2000/svg">
<rect width="52" height="52" rx="11" fill="#FF65A0"/>
<path d="M9.18945 26.0026C9.18945 22.9541 9.94037 20.1411 11.4421 17.5634C12.944 14.9856 14.9837 12.9459 17.5614 11.4441C20.1391 9.94229 22.9522 9.19141 26.0006 9.19141C29.049 9.19141 31.8621 9.94229 34.4398 11.4441C37.0175 12.9459 39.0573 14.9856 40.5591 17.5634C42.0609 20.1411 42.8118 22.9541 42.8118 26.0026C42.8118 29.051 42.0609 31.864 40.5591 34.4418C39.0573 37.0195 37.0175 39.0592 34.4398 40.561C31.8621 42.0628 29.049 42.8137 26.0006 42.8137C22.9522 42.8137 20.1391 42.0628 17.5614 40.561C14.9837 39.0592 12.944 37.0195 11.4421 34.4418C9.94037 31.864 9.18945 29.051 9.18945 26.0026ZM11.9801 26.0026C11.9801 29.4993 13.1569 32.5813 15.5104 35.2487C16.5864 33.1417 18.2899 31.1356 20.621 29.2303C22.9522 27.325 25.2273 26.1259 27.4464 25.6327C27.1101 24.8482 26.7851 24.1421 26.4713 23.5145C22.616 24.7473 18.4468 25.3637 13.9638 25.3637C13.0896 25.3637 12.4396 25.3525 12.0137 25.3301C12.0137 25.4198 12.0081 25.5318 11.9969 25.6663C11.9857 25.8008 11.9801 25.9129 11.9801 26.0026ZM12.4172 22.5395C12.9103 22.5843 13.6388 22.6067 14.6026 22.6067C18.346 22.6067 21.8987 22.1024 25.2609 21.0937C23.5574 18.0677 21.6858 15.546 19.646 13.5287C17.8752 14.4253 16.3566 15.6693 15.0902 17.2608C13.8238 18.8522 12.9328 20.6118 12.4172 22.5395ZM17.4269 37.0643C19.9598 39.0368 22.8177 40.0231 26.0006 40.0231C27.6593 40.0231 29.3068 39.7093 30.9431 39.0816C30.4948 35.2487 29.6206 31.539 28.3205 27.9527C26.2584 28.4009 24.1794 29.5329 22.0836 31.3485C19.9878 33.1641 18.4356 35.0694 17.4269 37.0643ZM22.5711 12.4528C24.5437 14.4925 26.3705 17.0366 28.0516 20.085C31.1 18.8074 33.3975 17.1823 34.9441 15.2098C32.344 13.058 29.3628 11.9821 26.0006 11.9821C24.8574 11.9821 23.7143 12.139 22.5711 12.4528ZM29.262 22.4722C29.5982 23.1895 29.9793 24.0973 30.4051 25.1956C32.0639 25.0387 33.8682 24.9603 35.8183 24.9603C37.2081 24.9603 38.5866 24.9939 39.9539 25.0611C39.7746 22.0127 38.6762 19.3005 36.6589 16.9245C35.2019 19.0988 32.7363 20.948 29.262 22.4722ZM31.2457 27.5492C32.3888 30.8666 33.1622 34.2736 33.5656 37.7704C35.3364 36.6272 36.7822 35.159 37.9029 33.3658C39.0237 31.5727 39.6961 29.6338 39.9202 27.5492C38.284 27.4371 36.7934 27.3811 35.4485 27.3811C34.2157 27.3811 32.8147 27.4371 31.2457 27.5492Z" fill="white"/>
</svg>
