<svg width="64" height="64" viewBox="0 0 64 64" fill="none" xmlns="http://www.w3.org/2000/svg">
<rect x="0.8" y="0.8" width="62.4" height="62.4" rx="15.2" fill="white"/>
<g clip-path="url(#clip0_2468_65057)">
<path d="M49.2255 32.399C49.2255 31.2403 49.1229 30.1403 48.9469 29.0696H32.373V35.6844H41.8627C41.4373 37.8552 40.1906 39.6886 38.3426 40.9353V45.3354H44.0041C47.3188 42.27 49.2255 37.7525 49.2255 32.399Z" fill="#4285F4"/>
<path d="M32.3745 49.5992C37.1266 49.5992 41.1014 48.0151 44.0055 45.331L38.344 40.9309C36.7599 41.9869 34.7505 42.6323 32.3745 42.6323C27.7837 42.6323 23.8969 39.5375 22.5035 35.3574H16.666V39.8896C19.5554 45.6391 25.4956 49.5992 32.3745 49.5992Z" fill="#34A853"/>
<path d="M22.502 35.3573C22.1353 34.3013 21.9447 33.1719 21.9447 31.9986C21.9447 30.8252 22.15 29.6958 22.502 28.6398V24.1077H16.6645C15.4618 26.4837 14.7725 29.1531 14.7725 31.9986C14.7725 34.844 15.4618 37.5134 16.6645 39.8895L22.502 35.3573Z" fill="#FBBC05"/>
<path d="M32.3745 21.3658C34.9706 21.3658 37.288 22.2605 39.1213 24.0059L44.1375 18.9897C41.1014 16.1443 37.1266 14.3989 32.3745 14.3989C25.4956 14.3989 19.5554 18.359 16.666 24.1086L22.5035 28.6407C23.8969 24.4606 27.7837 21.3658 32.3745 21.3658Z" fill="#EA4335"/>
</g>
<rect x="0.8" y="0.8" width="62.4" height="62.4" rx="15.2" stroke="#E9EAF3" stroke-width="1.6"/>
<defs>
<clipPath id="clip0_2468_65057">
<rect width="35.201" height="35.201" fill="white" transform="translate(14.3994 14.4006)"/>
</clipPath>
</defs>
</svg>
