<svg width="52" height="52" viewBox="0 0 52 52" fill="none" xmlns="http://www.w3.org/2000/svg">
<rect width="52" height="52" rx="12" fill="#1D9BF0"/>
<path d="M29.6319 14.1796V14.1743H30.9988L31.4982 14.2741C31.8312 14.3388 32.1335 14.4237 32.4051 14.5287C32.6768 14.6337 32.9396 14.7562 33.1937 14.8962C33.4478 15.0362 33.6783 15.1788 33.8851 15.3241C34.0901 15.4676 34.2741 15.6199 34.4371 15.7808C34.5983 15.9436 34.8498 15.9856 35.1915 15.9068C35.5332 15.8281 35.9013 15.7187 36.2956 15.5787C36.6899 15.4387 37.0798 15.2812 37.4653 15.1062C37.8509 14.9312 38.0857 14.8201 38.1698 14.7728C38.2522 14.7238 38.296 14.6976 38.3013 14.6941L38.3065 14.6862L38.3328 14.6731L38.3591 14.66L38.3854 14.6468L38.4116 14.6337L38.4169 14.6258L38.4248 14.6206L38.4327 14.6153L38.4379 14.6074L38.4642 14.5996L38.4905 14.5943L38.4853 14.6337L38.4774 14.6731L38.4642 14.7125L38.4511 14.7518L38.4379 14.7781L38.4248 14.8043L38.4116 14.8437C38.4029 14.87 38.3941 14.9049 38.3854 14.9487C38.3766 14.9925 38.2934 15.1675 38.1356 15.4737C37.9779 15.78 37.7808 16.0906 37.5442 16.4056C37.3076 16.7206 37.0956 16.9586 36.9081 17.1196C36.7188 17.2824 36.5935 17.3961 36.5321 17.4609C36.4708 17.5274 36.3963 17.5886 36.3087 17.6446L36.1773 17.7313L36.151 17.7444L36.1247 17.7575L36.1195 17.7654L36.1116 17.7706L36.1037 17.7759L36.0984 17.7838L36.0721 17.7969L36.0458 17.81L36.0406 17.8179L36.0327 17.8231L36.0248 17.8284L36.0195 17.8363L36.0143 17.8441L36.0064 17.8494L35.9985 17.8546L35.9933 17.8625H36.1247L36.8607 17.705C37.3514 17.6 37.8202 17.4731 38.2671 17.3244L38.9768 17.0881L39.0557 17.0619L39.0951 17.0487L39.1214 17.0356L39.1477 17.0225L39.174 17.0094L39.2003 16.9962L39.2528 16.9884L39.3054 16.9831V17.0356L39.2923 17.0409L39.2791 17.0487L39.2739 17.0566L39.266 17.0619L39.2581 17.0671L39.2528 17.075L39.2476 17.0829L39.2397 17.0881L39.2318 17.0934L39.2265 17.1012L39.2213 17.1091L39.2134 17.1144L39.2003 17.1406L39.1871 17.1669L39.1792 17.1721C39.1757 17.1774 39.0645 17.3261 38.8454 17.6184C38.6263 17.9124 38.508 18.0611 38.4905 18.0646C38.473 18.0699 38.4484 18.0961 38.4169 18.1434C38.3871 18.1924 38.2014 18.3875 37.8596 18.7288C37.5179 19.07 37.1832 19.3736 36.8555 19.6397C36.526 19.9074 36.3595 20.2364 36.356 20.6267C36.3508 21.0152 36.3306 21.4545 36.2956 21.9445C36.2605 22.4345 36.1948 22.9638 36.0984 23.5326C36.002 24.1014 35.8531 24.7445 35.6515 25.462C35.45 26.1795 35.2047 26.8796 34.9155 27.5621C34.6263 28.2446 34.324 28.8571 34.0086 29.3996C33.6932 29.9421 33.404 30.4015 33.1411 30.7777C32.8783 31.154 32.611 31.5084 32.3394 31.8409C32.0678 32.1734 31.7243 32.5479 31.309 32.9644C30.8919 33.3792 30.6641 33.6067 30.6255 33.6469C30.5852 33.6854 30.4135 33.8289 30.1103 34.0774C29.8089 34.3277 29.4846 34.5779 29.1377 34.8282C28.7924 35.0767 28.4752 35.2841 28.1861 35.4503C27.8969 35.6166 27.5482 35.8064 27.1399 36.02C26.7333 36.2352 26.2934 36.4347 25.8203 36.6185C25.3471 36.8022 24.8477 36.9729 24.3219 37.1304C23.7962 37.2879 23.288 37.4104 22.7973 37.4979C22.3066 37.5854 21.7502 37.6598 21.1281 37.721L20.1949 37.8129V37.826H18.4862V37.8129L18.2628 37.7998C18.1139 37.791 17.9912 37.7822 17.8948 37.7735C17.7984 37.7648 17.4348 37.7166 16.8039 37.6291C16.173 37.5416 15.6779 37.4541 15.3187 37.3666C14.9594 37.2791 14.4249 37.1129 13.7152 36.8679C13.0054 36.6229 12.3982 36.3752 11.8935 36.125C11.3906 35.8765 11.0751 35.719 10.9472 35.6525C10.821 35.5877 10.6791 35.5072 10.5213 35.411L10.2848 35.2666L10.2795 35.2587L10.2716 35.2535L10.2637 35.2482L10.2585 35.2403L10.2322 35.2272L10.2059 35.2141L10.2007 35.2062L10.1928 35.201L10.1849 35.1957L10.1796 35.1878L10.1744 35.18L10.1665 35.1747H10.1533V35.1222L10.1796 35.1275L10.2059 35.1353L10.3242 35.1485C10.403 35.1572 10.6177 35.1703 10.9682 35.1878C11.3187 35.2053 11.6911 35.2053 12.0854 35.1878C12.4797 35.1703 12.8828 35.1309 13.2946 35.0697C13.7064 35.0085 14.1927 34.9035 14.7535 34.7547C15.3143 34.6059 15.8295 34.4292 16.2992 34.2244C16.7671 34.018 17.1001 33.8639 17.2981 33.7624C17.4944 33.6627 17.794 33.4772 18.1971 33.2059L18.8017 32.799L18.8069 32.7912L18.8148 32.7859L18.8227 32.7807L18.828 32.7728L18.8332 32.7649L18.8411 32.7597L18.849 32.7544L18.8543 32.7465L18.8805 32.7387L18.9068 32.7334L18.9121 32.7072L18.92 32.6809L18.9279 32.6757L18.9331 32.6678L18.7228 32.6547C18.5826 32.6459 18.4468 32.6371 18.3154 32.6284C18.1839 32.6197 17.978 32.5803 17.6976 32.5103C17.4173 32.4403 17.115 32.3353 16.7907 32.1953C16.4665 32.0553 16.1511 31.889 15.8444 31.6965C15.5378 31.504 15.3161 31.3439 15.1794 31.2161C15.0444 31.0901 14.8692 30.9116 14.6536 30.6806C14.4398 30.4479 14.2541 30.209 14.0963 29.964C13.9386 29.719 13.7879 29.4363 13.6442 29.1161L13.426 28.6383L13.4129 28.599L13.3997 28.5596L13.3919 28.5333L13.3866 28.5071L13.426 28.5123L13.4655 28.5202L13.7546 28.5596C13.9474 28.5858 14.2497 28.5946 14.6615 28.5858C15.0733 28.5771 15.3581 28.5596 15.5158 28.5333C15.6736 28.5071 15.7699 28.4896 15.805 28.4808L15.8576 28.4677L15.9233 28.4546L15.989 28.4415L15.9943 28.4336L16.0021 28.4283L16.01 28.4231L16.0153 28.4152L15.9627 28.4021L15.9101 28.389L15.8576 28.3758L15.805 28.3627L15.7524 28.3496C15.7174 28.3408 15.656 28.3233 15.5684 28.2971C15.4808 28.2708 15.2442 28.1746 14.8587 28.0083C14.4731 27.8421 14.1664 27.6802 13.9386 27.5227C13.7102 27.3647 13.4925 27.192 13.2867 27.0056C13.0817 26.8165 12.8565 26.5733 12.6111 26.2758C12.3658 25.9783 12.1468 25.6327 11.954 25.2389C11.7612 24.8451 11.6166 24.4689 11.5202 24.1101C11.4242 23.7535 11.3609 23.3888 11.331 23.0207L11.2837 22.4695L11.3099 22.4747L11.3362 22.4826L11.3625 22.4957L11.3888 22.5088L11.4151 22.522L11.4414 22.5351L11.8488 22.7188C12.1205 22.8414 12.4578 22.9464 12.8609 23.0339C13.2639 23.1213 13.5049 23.1695 13.5837 23.1782L13.702 23.1914H13.9386L13.9334 23.1835L13.9255 23.1782L13.9176 23.173L13.9123 23.1651L13.9071 23.1572L13.8992 23.152L13.8913 23.1467L13.886 23.1389L13.8598 23.1257L13.8335 23.1126L13.8282 23.1047L13.8203 23.0995L13.8124 23.0942L13.8072 23.0864L13.7809 23.0732L13.7546 23.0601L13.7494 23.0522C13.7441 23.0487 13.6688 22.9927 13.5233 22.8842C13.3796 22.774 13.2289 22.6314 13.0712 22.4563C12.9134 22.2813 12.7557 22.0976 12.598 21.9051C12.44 21.7121 12.2992 21.5057 12.1774 21.2882C12.0548 21.0695 11.9251 20.7912 11.7884 20.4534C11.6534 20.1174 11.5509 19.7788 11.4808 19.4375C11.4107 19.0963 11.3713 18.7594 11.3625 18.4269C11.3538 18.0944 11.3625 17.81 11.3888 17.5738C11.4151 17.3375 11.4677 17.0706 11.5465 16.7731C11.6254 16.4756 11.7393 16.1606 11.8883 15.8281L12.1117 15.3293L12.1248 15.29L12.138 15.2506L12.1459 15.2453L12.1511 15.2375L12.1564 15.2296L12.1643 15.2243L12.1722 15.2296L12.1774 15.2375L12.1827 15.2453L12.1905 15.2506L12.1985 15.2558L12.2037 15.2637L12.2089 15.2716L12.2168 15.2768L12.23 15.3031L12.2431 15.3293L12.251 15.3346L12.2563 15.3425L12.6111 15.7362C12.8477 15.9987 13.1281 16.2919 13.4523 16.6156C13.7765 16.9394 13.9562 17.1074 13.9912 17.1196C14.0263 17.1336 14.0701 17.1739 14.1226 17.2404C14.1752 17.3051 14.3505 17.46 14.6484 17.705C14.9463 17.95 15.3362 18.2344 15.8181 18.5581C16.3001 18.8819 16.8346 19.2013 17.4216 19.5163C18.0087 19.8313 18.6396 20.1157 19.3143 20.3694C19.989 20.6232 20.4621 20.7894 20.7338 20.8682C21.0054 20.9469 21.4698 21.0476 22.127 21.1701C22.7841 21.2926 23.2792 21.3713 23.6122 21.4063C23.9451 21.4413 24.173 21.4615 24.2956 21.4667L24.4796 21.472L24.4744 21.4326L24.4665 21.3932L24.4139 21.0651C24.3789 20.8463 24.3613 20.5401 24.3613 20.1463C24.3613 19.7525 24.392 19.3894 24.4533 19.0569C24.5147 18.7244 24.6067 18.3875 24.7294 18.0463C24.852 17.705 24.9721 17.4311 25.0895 17.2246C25.2087 17.0199 25.3646 16.7862 25.5574 16.5237C25.7502 16.2612 25.9999 15.99 26.3066 15.71C26.6133 15.43 26.9637 15.1806 27.358 14.9618C27.7523 14.7431 28.116 14.5768 28.4489 14.4631C28.7819 14.3493 29.0623 14.2749 29.2901 14.2399C29.518 14.205 29.6319 14.1848 29.6319 14.1796V14.1796Z" fill="white"/>
</svg>
