<svg width="32" height="32" viewBox="0 0 32 32" fill="none" xmlns="http://www.w3.org/2000/svg">
<rect x="0.4" y="0.4" width="31.2" height="31.2" rx="15.6" fill="white"/>
<path d="M24.416 11.7634C24.3148 11.3902 24.1176 11.0499 23.8441 10.7764C23.5706 10.5029 23.2303 10.3057 22.857 10.2045C21.4903 9.8313 15.9892 9.8313 15.9892 9.8313C15.9892 9.8313 10.4878 9.8423 9.1208 10.2155C8.74751 10.3167 8.40721 10.5139 8.13372 10.7874C7.86023 11.0609 7.66307 11.4012 7.56182 11.7744C7.2002 13.1415 7.2002 15.9995 7.2002 15.9995C7.2002 15.9995 7.2002 18.8576 7.5731 20.2356C7.67434 20.6089 7.87151 20.9492 8.145 21.2227C8.41849 21.4962 8.75878 21.6934 9.13207 21.7946C10.4988 22.1678 16.0002 22.1678 16.0002 22.1678C16.0002 22.1678 21.5016 22.1678 22.8686 21.7949C23.2419 21.6937 23.5822 21.4965 23.8557 21.223C24.1292 20.9495 24.3263 20.6092 24.4276 20.2359C24.8002 18.8689 24.8002 15.9995 24.8002 15.9995C24.8002 15.9995 24.7892 13.1415 24.416 11.7634Z" fill="#FF0000"/>
<path d="M14.2372 18.643L18.8008 15.9997L14.2369 13.3564L14.2372 18.643Z" fill="white"/>
<rect x="0.4" y="0.4" width="31.2" height="31.2" rx="15.6" stroke="#E9EAF3" stroke-width="0.8"/>
</svg>
