<svg width="52" height="52" viewBox="0 0 52 52" fill="none" xmlns="http://www.w3.org/2000/svg">
<rect width="52" height="52" rx="11" fill="#E60023"/>
<path d="M25.9996 9.86515C17.0886 9.86515 9.86475 17.089 9.86475 26C9.86475 32.8355 14.1176 38.6789 20.1196 41.0299C19.9786 39.7533 19.8511 37.79 20.1756 36.3964C20.4688 35.1371 22.0676 28.3763 22.0676 28.3763C22.0676 28.3763 21.5849 27.4097 21.5849 25.9808C21.5849 23.7372 22.8853 22.0623 24.5045 22.0623C25.881 22.0623 26.5459 23.0958 26.5459 24.3351C26.5459 25.7194 25.6645 27.7892 25.2097 29.7072C24.8296 31.3132 26.015 32.6228 27.599 32.6228C30.4667 32.6228 32.6711 29.5991 32.6711 25.2343C32.6711 21.3711 29.8952 18.67 25.9314 18.67C21.3405 18.67 18.6458 22.1135 18.6458 25.6721C18.6458 27.0588 19.18 28.5459 19.8466 29.3542C19.9785 29.514 19.9978 29.6539 19.9585 29.817C19.836 30.3266 19.5639 31.4225 19.5104 31.6469C19.4401 31.9422 19.2766 32.0049 18.9708 31.8626C16.9557 30.9246 15.6957 27.9783 15.6957 25.6119C15.6957 20.5222 19.3938 15.848 26.3567 15.848C31.9538 15.848 36.3035 19.8365 36.3035 25.1667C36.3035 30.7274 32.7974 35.2026 27.931 35.2026C26.2959 35.2026 24.7589 34.3532 24.2328 33.3498C24.2328 33.3498 23.4238 36.4305 23.2276 37.1854C22.8634 38.5869 21.88 40.3436 21.2223 41.4153C22.7319 41.8827 24.3362 42.1348 25.9996 42.1348C34.9106 42.1348 42.1345 34.9109 42.1345 26C42.1345 17.089 34.9106 9.86515 25.9996 9.86515Z" fill="white"/>
</svg>
