<svg width="52" height="52" viewBox="0 0 52 52" fill="none" xmlns="http://www.w3.org/2000/svg">
<rect x="0.5" y="0.5" width="51" height="51" rx="10.5" fill="white" stroke="#E9EAF3"/>
<path d="M40.0624 26.3185C40.0624 25.1386 39.9667 24.2776 39.7595 23.3848H26.2866V28.7101H34.1949C34.0355 30.0335 33.1745 32.0265 31.2612 33.3658L31.2344 33.544L35.4942 36.8441L35.7894 36.8736C38.4998 34.3703 40.0624 30.6872 40.0624 26.3185" fill="#4285F4"/>
<path d="M26.286 40.3516C30.1604 40.3516 33.413 39.076 35.7887 36.8757L31.2605 33.3679C30.0488 34.213 28.4225 34.8029 26.286 34.8029C22.4913 34.8029 19.2706 32.2997 18.1225 28.8398L17.9542 28.8541L13.5247 32.2821L13.4668 32.4432C15.8265 37.1307 20.6736 40.3516 26.286 40.3516Z" fill="#34A853"/>
<path d="M18.1228 28.8377C17.8199 27.9448 17.6446 26.9881 17.6446 25.9996C17.6446 25.011 17.8199 24.0544 18.1069 23.1615L18.0989 22.9714L13.6139 19.4883L13.4671 19.5581C12.4946 21.5033 11.9365 23.6877 11.9365 25.9996C11.9365 28.3115 12.4946 30.4958 13.4671 32.441L18.1228 28.8377" fill="#FBBC05"/>
<path d="M26.286 17.1989C28.9805 17.1989 30.7981 18.3629 31.8345 19.3355L35.8844 15.3813C33.3971 13.0694 30.1604 11.6504 26.286 11.6504C20.6736 11.6504 15.8265 14.8711 13.4668 19.5587L18.1065 23.1621C19.2706 19.7022 22.4913 17.1989 26.286 17.1989" fill="#EB4335"/>
</svg>
