<svg width="32" height="32" viewBox="0 0 32 32" fill="none" xmlns="http://www.w3.org/2000/svg">
<rect width="32" height="32" rx="16" fill="#4353FF"/>
<path d="M20.6524 13.6482L19.2506 18.0664C19.2506 17.728 18.2838 10.3999 18.2838 10.3999C16.0602 10.3999 14.8808 11.9757 14.262 13.6482L12.5509 18.076C12.5509 17.757 12.3092 13.6869 12.3092 13.6869C12.2266 12.8058 11.8238 11.9856 11.1771 11.3816C10.5303 10.7776 9.68447 10.4317 8.7998 10.4096L10.6173 21.5081C12.9376 21.5081 14.1944 19.9322 14.8421 18.2597L16.2923 14.4893C16.2923 14.644 17.259 21.5081 17.259 21.5081C18.2078 21.5068 19.1315 21.2035 19.8964 20.6421C20.6612 20.0806 21.2273 19.2902 21.5128 18.3854L24.7998 10.3999C22.4796 10.3999 21.2614 11.9757 20.6427 13.6482H20.6524Z" fill="white"/>
</svg>
