<svg width="24" height="24" viewBox="0 0 24 24" fill="none" xmlns="http://www.w3.org/2000/svg">
<path fill-rule="evenodd" clip-rule="evenodd" d="M14.9527 2.01273H7.70754C5.44239 2.00401 3.58562 3.8096 3.53226 6.07366V17.7403C3.48216 20.0413 5.30626 21.9482 7.60735 21.9994C7.64111 21.9994 7.67378 22.0005 7.70754 21.9994H16.4077C18.6881 21.9068 20.4849 20.0228 20.4686 17.7403V7.75836L14.9527 2.01273Z" stroke="#FF414C" stroke-width="1.4" stroke-linecap="round" stroke-linejoin="round"/>
<path d="M8.05971 8.7857C7.51263 7.84175 10.0433 6.81822 10.3853 7.78642C10.9709 9.4486 11.7288 14.7593 9.6042 17.8155C9.01149 18.6671 7.1719 17.322 7.85976 16.4347C8.84462 15.2172 10.6156 14.805 12 14.1397C13.3843 13.4745 14.9771 12.4006 16.5 12.4129C17.5723 12.4554 17.4591 14.9766 16.5 14.854C14.969 14.6442 13.2722 13.3142 11.9898 12.4129C10.7074 11.5116 8.82613 10.1905 8.05971 8.7857Z" stroke="#FF414C" stroke-width="1.4" stroke-linecap="round" stroke-linejoin="round"/>
<path d="M14.6665 2V5.16794C14.6665 6.71434 15.9167 7.96779 17.4631 7.97215H20.4633" stroke="#FF414C" stroke-width="1.4" stroke-linecap="round" stroke-linejoin="round"/>
</svg>
