<svg width="52" height="52" viewBox="0 0 52 52" fill="none" xmlns="http://www.w3.org/2000/svg">
<rect width="52" height="52" rx="11" fill="#4353FF"/>
<path d="M33.692 21.436C33.692 21.436 31.1121 29.5389 30.9019 30.2078C30.8254 29.5198 28.9335 14.9766 28.9335 14.9766C24.538 14.9766 22.1874 18.1107 20.9452 21.4169C20.9452 21.4169 17.811 29.5389 17.5435 30.2269C17.5244 29.5962 17.0657 21.5124 17.0657 21.5124C16.7982 17.4609 13.0907 14.9957 10.0903 14.9957L13.7214 37.0303C18.327 37.0112 20.8114 33.8961 22.1109 30.59C22.1109 30.59 24.882 23.4235 24.9967 23.0986C25.0158 23.4044 26.9842 37.0303 26.9842 37.0303C31.6089 37.0303 34.0933 34.1063 35.4311 30.9149L41.9096 14.9957C37.3421 14.9957 34.9342 18.1107 33.692 21.436Z" fill="white"/>
</svg>
