<svg width="48" height="48" viewBox="0 0 48 48" fill="none" xmlns="http://www.w3.org/2000/svg">
<rect width="48" height="48" rx="14" fill="#F4F7FF"/>
<path fill-rule="evenodd" clip-rule="evenodd" d="M27.6339 13.1609L14.3224 29.8105C14.1435 30.0337 14.0802 30.3191 14.1443 30.592C14.1444 30.5922 14.1443 30.5919 14.1443 30.592L15.047 34.4124L19.0768 34.3619L19.0792 34.3618C19.3913 34.3584 19.6745 34.2174 19.8576 33.9895L19.8583 33.9887L19.8596 33.987L21.9577 31.3624C23.2183 29.7853 24.8996 27.6816 26.5824 25.5756C28.2653 23.4696 29.9495 21.3613 31.216 19.7747C31.8492 18.9814 32.3778 18.3189 32.7495 17.8524C32.9354 17.619 33.0816 17.4353 33.1818 17.309C33.2254 17.2541 33.2596 17.2108 33.2845 17.1794C33.73 16.414 33.4893 15.4266 32.6937 14.9457C32.6473 14.9176 32.6026 14.8869 32.5598 14.8536L31.3619 13.9229C30.7628 13.4574 30.1431 12.9758 30.1011 12.9428L30.0911 12.9348C29.3445 12.3352 28.243 12.4443 27.6339 13.1609ZM34.2109 12.6075C36.2782 13.9123 36.9264 16.6294 35.6113 18.7157C35.5976 18.7371 35.5781 18.766 35.5708 18.7764L35.5541 18.7996C35.5472 18.809 35.5414 18.8168 35.5383 18.8207C35.5318 18.8294 35.5254 18.8376 35.5207 18.8437L35.4841 18.8903C35.4557 18.9264 35.4154 18.9773 35.3646 19.0413C35.2627 19.1697 35.1152 19.3551 34.929 19.5888C34.5565 20.0564 34.0272 20.7198 33.3938 21.5132C32.1269 23.1003 30.4424 25.209 28.7594 27.3152C27.0765 29.4214 25.3951 31.5251 24.1344 33.1023L22.0339 35.73C22.0338 35.7301 22.0337 35.7302 20.9454 34.8601L22.0339 35.73L22.0326 35.7316C21.3217 36.6185 20.2482 37.1357 19.1104 37.1483C19.1101 37.1483 19.1098 37.1483 19.1094 37.1483L13.9652 37.2129C13.3126 37.2211 12.7418 36.7752 12.5917 36.14L11.4319 31.2309C11.1713 30.124 11.4328 28.9604 12.1475 28.0683C12.1477 28.068 12.1479 28.0678 12.1481 28.0675L25.4685 11.4069C25.475 11.3988 25.4815 11.3908 25.4882 11.3828C27.0728 9.48901 29.903 9.21589 31.829 10.7564C31.8303 10.7574 31.832 10.7588 31.8343 10.7606L34.2109 12.6075ZM33.3206 17.1334C33.3286 17.1226 33.3338 17.1159 33.3343 17.1154C33.3348 17.1149 33.3308 17.1203 33.3206 17.1334Z" fill="#1476FF"/>
<path fill-rule="evenodd" clip-rule="evenodd" d="M22.9646 14.5479C23.4333 13.9376 24.308 13.8228 24.9183 14.2915L32.6285 20.2126C33.2388 20.6813 33.3536 21.556 32.8849 22.1664C32.4162 22.7767 31.5415 22.8915 30.9312 22.4228L23.221 16.5016C22.6107 16.0329 22.4959 15.1582 22.9646 14.5479Z" fill="#1476FF"/>
</svg>
