<svg width="48" height="48" viewBox="0 0 48 48" fill="none" xmlns="http://www.w3.org/2000/svg">
<rect width="48" height="48" rx="14" fill="#F4F7FF"/>
<path d="M24.3917 24.2738C25.0558 23.699 25.5884 22.9881 25.9534 22.1893C26.3185 21.3904 26.5074 20.5224 26.5074 19.6442C26.5074 17.9938 25.8518 16.4111 24.6848 15.2441C23.5179 14.0772 21.9351 13.4216 20.2848 13.4216C18.6344 13.4216 17.0517 14.0772 15.8847 15.2441C14.7178 16.4111 14.0622 17.9938 14.0622 19.6442C14.0622 20.5224 14.2511 21.3904 14.6161 22.1893C14.9812 22.9881 15.5138 23.699 16.1779 24.2738C14.4357 25.0627 12.9576 26.3366 11.9203 27.9433C10.883 29.55 10.3304 31.4215 10.3286 33.3339C10.3286 33.664 10.4597 33.9805 10.6931 34.2139C10.9265 34.4473 11.2431 34.5784 11.5731 34.5784C11.9032 34.5784 12.2198 34.4473 12.4531 34.2139C12.6865 33.9805 12.8177 33.664 12.8177 33.3339C12.8177 31.3535 13.6044 29.4542 15.0047 28.0539C16.4051 26.6535 18.3044 25.8668 20.2848 25.8668C22.2652 25.8668 24.1645 26.6535 25.5648 28.0539C26.9652 29.4542 27.7519 31.3535 27.7519 33.3339C27.7519 33.664 27.883 33.9805 28.1164 34.2139C28.3498 34.4473 28.6664 34.5784 28.9964 34.5784C29.3265 34.5784 29.6431 34.4473 29.8764 34.2139C30.1098 33.9805 30.241 33.664 30.241 33.3339C30.2391 31.4215 29.6865 29.55 28.6492 27.9433C27.6119 26.3366 26.1339 25.0627 24.3917 24.2738V24.2738ZM20.2848 23.3777C19.5464 23.3777 18.8245 23.1588 18.2105 22.7485C17.5965 22.3383 17.118 21.7552 16.8354 21.0729C16.5528 20.3907 16.4789 19.64 16.623 18.9158C16.767 18.1916 17.1226 17.5263 17.6448 17.0041C18.1669 16.482 18.8322 16.1264 19.5564 15.9824C20.2806 15.8383 21.0313 15.9122 21.7136 16.1948C22.3958 16.4774 22.9789 16.9559 23.3891 17.5699C23.7994 18.1839 24.0183 18.9057 24.0183 19.6442C24.0183 20.6344 23.625 21.584 22.9248 22.2842C22.2246 22.9844 21.275 23.3777 20.2848 23.3777ZM32.4064 23.776C33.2029 22.8791 33.7231 21.7711 33.9046 20.5855C34.086 19.3998 33.9209 18.1869 33.4291 17.0929C32.9373 15.9989 32.1398 15.0703 31.1326 14.419C30.1254 13.7676 28.9514 13.4212 27.7519 13.4216C27.4218 13.4216 27.1053 13.5527 26.8719 13.7861C26.6385 14.0195 26.5074 14.336 26.5074 14.6661C26.5074 14.9962 26.6385 15.3127 26.8719 15.5461C27.1053 15.7795 27.4218 15.9106 27.7519 15.9106C28.7421 15.9106 29.6918 16.304 30.3919 17.0041C31.0921 17.7043 31.4855 18.654 31.4855 19.6442C31.4837 20.2978 31.3104 20.9396 30.9828 21.5053C30.6552 22.0709 30.1848 22.5407 29.6187 22.8675C29.4342 22.9739 29.2801 23.1259 29.1711 23.309C29.0622 23.492 29.002 23.6999 28.9964 23.9129C28.9912 24.1242 29.0399 24.3333 29.1379 24.5205C29.2359 24.7078 29.3799 24.867 29.5565 24.9832L30.0418 25.3067L30.2036 25.3939C31.7038 26.1054 32.9693 27.2308 33.8513 28.6375C34.7332 30.0442 35.1948 31.6736 35.1817 33.3339C35.1817 33.664 35.3128 33.9805 35.5462 34.2139C35.7796 34.4473 36.0962 34.5784 36.4262 34.5784C36.7563 34.5784 37.0728 34.4473 37.3062 34.2139C37.5396 33.9805 37.6707 33.664 37.6707 33.3339C37.6809 31.4241 37.2026 29.5434 36.2812 27.8705C35.3598 26.1977 34.026 24.7882 32.4064 23.776V23.776Z" fill="#1476FF"/>
</svg>
