<svg width="32" height="32" viewBox="0 0 32 32" fill="none" xmlns="http://www.w3.org/2000/svg">
<rect width="32" height="32" rx="16" fill="#0A66C2"/>
<path d="M8.79999 10.3935C8.79999 9.93169 8.96215 9.55074 9.28647 9.2506C9.61079 8.95045 10.0324 8.80038 10.5513 8.80038C11.061 8.80038 11.4733 8.94814 11.7884 9.24367C12.1127 9.54844 12.2749 9.94554 12.2749 10.435C12.2749 10.8783 12.1174 11.2477 11.8023 11.5432C11.478 11.848 11.0517 12.0004 10.5235 12.0004H10.5096C9.99998 12.0004 9.58764 11.848 9.27257 11.5432C8.95751 11.2385 8.79999 10.8552 8.79999 10.3935ZM8.98068 22.5147V13.261H12.0664V22.5147H8.98068ZM13.776 22.5147H16.8618V17.3476C16.8618 17.0243 16.8988 16.775 16.973 16.5995C17.1027 16.2855 17.2996 16.02 17.5637 15.803C17.8278 15.5859 18.1591 15.4774 18.5575 15.4774C19.5954 15.4774 20.1143 16.1747 20.1143 17.5692V22.5147H23.2V17.209C23.2 15.8422 22.8757 14.8056 22.227 14.0991C21.5784 13.3926 20.7212 13.0393 19.6556 13.0393C18.4602 13.0393 17.5289 13.5519 16.8618 14.577V14.6047H16.8479L16.8618 14.577V13.261H13.776C13.7946 13.5565 13.8038 14.4754 13.8038 16.0177C13.8038 17.56 13.7946 19.7256 13.776 22.5147Z" fill="white"/>
</svg>
