<svg width="24" height="24" viewBox="0 0 24 24" fill="none" xmlns="http://www.w3.org/2000/svg">
<path fill-rule="evenodd" clip-rule="evenodd" d="M15.5431 2.62766C15.1659 2.2348 14.6449 2.01273 14.1003 2.01273H7.70754C5.44239 2.00401 3.58562 3.8096 3.53226 6.07366V17.7403C3.48216 20.0413 5.30626 21.9482 7.60735 21.9994C7.64111 21.9994 7.67378 22.0005 7.70754 21.9994H16.4077C18.6881 21.9068 20.4849 20.0228 20.4686 17.7403V8.56299C20.4686 8.04668 20.2689 7.55037 19.9114 7.17792L15.5431 2.62766Z" stroke="#45C74E" stroke-width="1.4" stroke-linecap="round" stroke-linejoin="round"/>
<path d="M14.6665 2V5.16794C14.6665 6.71434 15.9167 7.96779 17.4631 7.97215H20.4633" stroke="#45C74E" stroke-width="1.4" stroke-linecap="round" stroke-linejoin="round"/>
<rect x="6.7041" y="12.3276" width="10.8608" height="6.56685" rx="2" stroke="#45C74E" stroke-width="1.4" stroke-linecap="round" stroke-linejoin="round"/>
<line x1="7.15459" y1="15.5314" x2="17.1408" y2="15.5314" stroke="#45C74E" stroke-width="1.4" stroke-linecap="round" stroke-linejoin="round"/>
<line x1="12.2762" y1="12.5218" x2="12.2762" y2="18.7779" stroke="#45C74E" stroke-width="1.4" stroke-linecap="round" stroke-linejoin="round"/>
</svg>
