<svg width="24" height="24" viewBox="0 0 24 24" fill="none" xmlns="http://www.w3.org/2000/svg">
<path fill-rule="evenodd" clip-rule="evenodd" d="M15.5431 2.62766C15.1659 2.2348 14.6449 2.01273 14.1003 2.01273H7.70754C5.44239 2.00401 3.58562 3.8096 3.53226 6.07366V17.7403C3.48216 20.0413 5.30626 21.9482 7.60735 21.9994C7.64111 21.9994 7.67378 22.0005 7.70754 21.9994H16.4077C18.6881 21.9068 20.4849 20.0228 20.4686 17.7403V8.56299C20.4686 8.04668 20.2689 7.55037 19.9114 7.17792L15.5431 2.62766Z" stroke="#FFB016" stroke-width="1.4" stroke-linecap="round" stroke-linejoin="round"/>
<path fill-rule="evenodd" clip-rule="evenodd" d="M10.5706 9.03114C10.5706 9.85207 9.90578 10.5169 9.08485 10.5169C8.26472 10.5169 7.59912 9.85207 7.59912 9.03114C7.59912 8.2102 8.26472 7.54541 9.08485 7.54541C9.90498 7.54621 10.5698 8.21101 10.5706 9.03114Z" stroke="#FFB016" stroke-width="1.4" stroke-linecap="round" stroke-linejoin="round"/>
<path d="M19.9699 14.5385C19.2271 13.7739 16.8536 11.6846 15.3003 11.6846C13.7462 11.6846 12.8504 15.0914 11.3558 15.0914C9.86122 15.0914 8.50346 13.551 7.30586 14.5385C6.10826 15.5252 4.05518 19.2707 4.05518 19.2707" stroke="#FFB016" stroke-width="1.4" stroke-linecap="round" stroke-linejoin="round"/>
<path d="M14.6665 2V5.16794C14.6665 6.71434 15.9167 7.96779 17.4631 7.97215H20.4633" stroke="#FFB016" stroke-width="1.4" stroke-linecap="round" stroke-linejoin="round"/>
</svg>
