<svg width="32" height="32" viewBox="0 0 32 32" fill="none" xmlns="http://www.w3.org/2000/svg">
<rect x="0.4" y="0.4" width="31.2" height="31.2" rx="15.6" fill="white"/>
<g clip-path="url(#clip0_2468_64726)">
<path d="M24.6128 16.1994C24.6128 15.6201 24.5614 15.0701 24.4734 14.5347H16.1865V17.8422H20.9313C20.7187 18.9275 20.0953 19.8442 19.1713 20.4676V22.6676H22.002C23.6594 21.1349 24.6128 18.8762 24.6128 16.1994Z" fill="#4285F4"/>
<path d="M16.1872 24.7995C18.5633 24.7995 20.5507 24.0075 22.0027 22.6655L19.172 20.4654C18.38 20.9934 17.3753 21.3161 16.1872 21.3161C13.8918 21.3161 11.9484 19.7687 11.2518 17.6786H8.33301V19.9447C9.77772 22.8195 12.7478 24.7995 16.1872 24.7995Z" fill="#34A853"/>
<path d="M11.251 17.6786C11.0677 17.1506 10.9723 16.5859 10.9723 15.9992C10.9723 15.4125 11.075 14.8479 11.251 14.3198V12.0538H8.33226C7.73091 13.2418 7.38623 14.5765 7.38623 15.9992C7.38623 17.4219 7.73091 18.7566 8.33226 19.9447L11.251 17.6786Z" fill="#FBBC05"/>
<path d="M16.1872 10.6828C17.4853 10.6828 18.644 11.1302 19.5607 12.0029L22.0687 9.4948C20.5507 8.0721 18.5633 7.1994 16.1872 7.1994C12.7478 7.1994 9.77772 9.17946 8.33301 12.0542L11.2518 14.3203C11.9484 12.2302 13.8918 10.6828 16.1872 10.6828Z" fill="#EA4335"/>
</g>
<rect x="0.4" y="0.4" width="31.2" height="31.2" rx="15.6" stroke="#E9EAF3" stroke-width="0.8"/>
<defs>
<clipPath id="clip0_2468_64726">
<rect width="17.6005" height="17.6005" fill="white" transform="translate(7.19971 7.20032)"/>
</clipPath>
</defs>
</svg>
