<svg width="48" height="48" viewBox="0 0 48 48" fill="none" xmlns="http://www.w3.org/2000/svg">
<rect width="48" height="48" rx="14" fill="#FFF7E8"/>
<path fill-rule="evenodd" clip-rule="evenodd" d="M34.9113 14.8223L13.5292 22.3424C13.5289 22.3425 13.5285 22.3427 13.5281 22.3428C13.3991 22.3888 13.2874 22.4738 13.2087 22.586C13.1297 22.6985 13.0877 22.8328 13.0886 22.9703L13.0886 22.9778H13.0886V25.0195L13.0885 25.0357C13.0867 25.174 13.1282 25.3094 13.2072 25.4228C13.286 25.5359 13.398 25.6215 13.5277 25.6679C13.5282 25.668 13.5287 25.6682 13.5292 25.6684L34.9113 33.1779V14.8223ZM34.8993 34.4733L34.4931 35.6301L12.7131 27.9808L12.7096 27.9796C12.0965 27.7622 11.5669 27.3582 11.195 26.8244C10.825 26.2931 10.6297 25.6598 10.6364 25.0125V22.981C10.6333 22.3358 10.8308 21.7055 11.2015 21.1773C11.573 20.648 12.1 20.2474 12.7096 20.0312L12.7126 20.0302L34.4925 12.3701L34.5036 12.3663C34.8298 12.255 35.1779 12.2234 35.5188 12.274C35.8598 12.3246 36.1837 12.4559 36.4635 12.6571C36.7434 12.8583 36.9711 13.1235 37.1276 13.4306C37.2837 13.7368 37.3645 14.0757 37.3635 14.4193C37.3635 14.4203 37.3635 14.4214 37.3635 14.4224L36.1374 14.4168H37.3635V14.4193V33.5562C37.3634 33.5509 37.3633 33.5455 37.3632 33.5401L36.1374 33.567H37.3635V33.5562C37.3684 33.8985 37.292 34.2373 37.1404 34.5444C36.9864 34.8564 36.7594 35.1266 36.4787 35.3321C36.198 35.5376 35.8718 35.6723 35.5279 35.7248C35.184 35.7773 34.8325 35.746 34.5033 35.6336L34.8993 34.4733Z" fill="#FFB016"/>
<path fill-rule="evenodd" clip-rule="evenodd" d="M15.1499 26.6363C15.7749 26.8969 16.0703 27.6149 15.8097 28.2399C15.6234 28.6866 15.528 29.1661 15.5292 29.6502C15.5292 29.6606 15.5291 29.6709 15.5288 29.6813C15.5088 30.5499 15.8093 31.3953 16.373 32.0564C16.9367 32.7174 17.7241 33.1476 18.5849 33.265C19.4457 33.3823 20.3196 33.1785 21.0396 32.6924C21.7597 32.2064 22.2755 31.4722 22.4886 30.63C22.6547 29.9735 23.3216 29.576 23.978 29.7421C24.6345 29.9082 25.032 30.5751 24.8659 31.2315C24.5049 32.6581 23.6312 33.9017 22.4116 34.725C21.1919 35.5482 19.7118 35.8934 18.2537 35.6947C16.7957 35.496 15.462 34.7672 14.5071 33.6476C13.5557 32.5319 13.0469 31.1059 13.0769 29.6403C13.0771 28.8356 13.2366 28.0389 13.5464 27.2961C13.807 26.6711 14.5249 26.3757 15.1499 26.6363Z" fill="#FFB016"/>
</svg>
