<svg width="50" height="50" viewBox="0 0 50 50" fill="none" xmlns="http://www.w3.org/2000/svg">
<rect width="50" height="50" rx="15.7895" fill="#F4F7FF"/>
<path d="M24.9996 10.557C22.1431 10.557 19.3507 11.4041 16.9755 12.9911C14.6004 14.5781 12.7492 16.8338 11.6561 19.4729C10.5629 22.112 10.2769 25.016 10.8342 27.8177C11.3915 30.6193 12.767 33.1928 14.7869 35.2127C16.8068 37.2326 19.3803 38.6082 22.1819 39.1654C24.9836 39.7227 27.8876 39.4367 30.5267 38.3436C33.1658 37.2504 35.4215 35.3992 37.0085 33.0241C38.5955 30.6489 39.4426 27.8565 39.4426 25C39.4426 23.1033 39.069 21.2252 38.3432 19.4729C37.6174 17.7206 36.5535 16.1284 35.2124 14.7873C33.8712 13.4461 32.279 12.3822 30.5267 11.6564C28.7744 10.9306 26.8963 10.557 24.9996 10.557V10.557ZM24.9996 36.5544C22.7144 36.5544 20.4805 35.8767 18.5804 34.6071C16.6802 33.3375 15.1993 31.5329 14.3248 29.4217C13.4502 27.3104 13.2214 24.9872 13.6673 22.7458C14.1131 20.5045 15.2135 18.4457 16.8294 16.8298C18.4454 15.2139 20.5041 14.1134 22.7455 13.6676C24.9868 13.2218 27.31 13.4506 29.4213 14.3251C31.5326 15.1997 33.3371 16.6806 34.6067 18.5807C35.8764 20.4808 36.554 22.7147 36.554 25C36.554 28.0644 35.3367 31.0033 33.1698 33.1702C31.0029 35.337 28.064 36.5544 24.9996 36.5544V36.5544ZM30.7768 23.5557H26.4439V19.2228C26.4439 18.8397 26.2918 18.4724 26.0209 18.2015C25.75 17.9307 25.3827 17.7785 24.9996 17.7785C24.6166 17.7785 24.2492 17.9307 23.9784 18.2015C23.7075 18.4724 23.5553 18.8397 23.5553 19.2228V23.5557H19.2224C18.8394 23.5557 18.472 23.7079 18.2012 23.9787C17.9303 24.2496 17.7781 24.6169 17.7781 25C17.7781 25.383 17.9303 25.7504 18.2012 26.0213C18.472 26.2921 18.8394 26.4443 19.2224 26.4443H23.5553V30.7772C23.5553 31.1602 23.7075 31.5276 23.9784 31.7985C24.2492 32.0693 24.6166 32.2215 24.9996 32.2215C25.3827 32.2215 25.75 32.0693 26.0209 31.7985C26.2918 31.5276 26.4439 31.1602 26.4439 30.7772V26.4443H30.7768C31.1599 26.4443 31.5272 26.2921 31.7981 26.0213C32.069 25.7504 32.2211 25.383 32.2211 25C32.2211 24.6169 32.069 24.2496 31.7981 23.9787C31.5272 23.7079 31.1599 23.5557 30.7768 23.5557Z" fill="#1476FF"/>
</svg>
