<svg width="52" height="52" viewBox="0 0 52 52" fill="none" xmlns="http://www.w3.org/2000/svg">
<rect width="52" height="52" rx="11" fill="#0B0E2C"/>
<g clip-path="url(#clip0_2542_57942)">
<path fill-rule="evenodd" clip-rule="evenodd" d="M25.7834 9.625C21.7963 9.62516 17.9394 11.0442 14.9028 13.6281C11.8663 16.212 9.84838 19.7921 9.21018 23.7278C8.57198 27.6635 9.35517 31.6979 11.4196 35.1089C13.484 38.52 16.6949 41.0851 20.4776 42.3452C21.3176 42.4988 21.6237 41.9814 21.6237 41.5361C21.6237 41.1373 21.6093 40.0819 21.601 38.6802C16.9311 39.6954 15.9458 36.4303 15.9458 36.4303C15.6371 35.4155 14.9759 34.5443 14.0814 33.9742C12.557 32.9323 14.1968 32.9539 14.1968 32.9539C14.7288 33.0272 15.2371 33.2211 15.6828 33.5209C16.1285 33.8206 16.4997 34.2182 16.7683 34.6833C16.9956 35.0976 17.3029 35.4628 17.6723 35.7575C18.0417 36.0523 18.4658 36.2709 18.9202 36.4007C19.3747 36.5305 19.8503 36.5689 20.3197 36.5136C20.789 36.4584 21.2428 36.3106 21.6546 36.0788C21.7312 35.2275 22.1091 34.4315 22.7203 33.8341C18.9925 33.4105 15.0728 31.9706 15.0728 25.5363C15.0489 23.8683 15.6679 22.2552 16.8013 21.0312C16.2884 19.5832 16.3474 17.9941 16.9662 16.5881C16.9662 16.5881 18.3751 16.1366 21.5825 18.3093C24.3339 17.5563 27.2371 17.5563 29.9885 18.3093C33.1938 16.1366 34.6007 16.5881 34.6007 16.5881C35.2202 17.9938 35.2803 19.5829 34.7687 21.0312C35.9022 22.2549 36.5203 23.8685 36.494 25.5363C36.494 31.9861 32.5682 33.4053 28.8279 33.8206C29.2285 34.2278 29.5375 34.7159 29.7341 35.2522C29.9307 35.7884 30.0104 36.3605 29.9679 36.9302C29.9679 39.1749 29.9473 40.9858 29.9473 41.5361C29.9473 41.9845 30.2503 42.507 31.1016 42.3431C34.8826 41.0804 38.091 38.5138 40.1529 35.1023C42.2149 31.6908 42.996 27.657 42.3565 23.7224C41.7169 19.7879 39.6985 16.2091 36.6621 13.6263C33.6258 11.0435 29.7697 9.6252 25.7834 9.625Z" fill="white"/>
</g>
<defs>
<clipPath id="clip0_2542_57942">
<rect width="34.0086" height="32.7491" fill="white" transform="translate(8.99561 9.625)"/>
</clipPath>
</defs>
</svg>
