<svg width="32" height="32" viewBox="0 0 32 32" fill="none" xmlns="http://www.w3.org/2000/svg">
<rect width="32" height="32" rx="16" fill="#1D9BF0"/>
<path d="M18.6907 9.30107V9.29819H19.4409L19.7151 9.35294C19.8978 9.38848 20.0637 9.43506 20.2128 9.49269C20.3619 9.55032 20.5062 9.61756 20.6456 9.69439C20.7851 9.77123 20.9116 9.84952 21.0251 9.92923C21.1376 10.008 21.2386 10.0916 21.3281 10.1799C21.4165 10.2693 21.5546 10.2923 21.7421 10.2491C21.9297 10.2059 22.1317 10.1458 22.3481 10.069C22.5645 9.99215 22.7785 9.90571 22.9901 9.80965C23.2017 9.7136 23.3306 9.65261 23.3768 9.62668C23.422 9.59979 23.446 9.58539 23.4489 9.58346L23.4518 9.57913L23.4662 9.57193L23.4806 9.56473L23.495 9.55752L23.5095 9.55032L23.5124 9.546L23.5167 9.54311L23.521 9.54023L23.5239 9.53591L23.5383 9.53159L23.5528 9.52871L23.5499 9.55032L23.5455 9.57193L23.5383 9.59354L23.5311 9.61515L23.5239 9.62956L23.5167 9.64397L23.5095 9.66558C23.5047 9.67999 23.4999 9.69919 23.495 9.72321C23.4902 9.74722 23.4445 9.84327 23.358 10.0114C23.2714 10.1794 23.1632 10.3499 23.0334 10.5228C22.9035 10.6957 22.7871 10.8263 22.6842 10.9147C22.5804 11.004 22.5116 11.0665 22.4779 11.102C22.4442 11.1385 22.4034 11.1721 22.3553 11.2029L22.2831 11.2504L22.2687 11.2576L22.2543 11.2648L22.2514 11.2691L22.2471 11.272L22.2427 11.2749L22.2399 11.2792L22.2254 11.2864L22.211 11.2936L22.2081 11.2979L22.2038 11.3008L22.1995 11.3037L22.1966 11.308L22.1937 11.3124L22.1894 11.3152L22.185 11.3181L22.1821 11.3224H22.2543L22.6583 11.236C22.9276 11.1784 23.1849 11.1087 23.4301 11.0271L23.8197 10.8974L23.8629 10.883L23.8846 10.8758L23.899 10.8686L23.9134 10.8614L23.9279 10.8542L23.9423 10.847L23.9711 10.8427L24 10.8398V10.8686L23.9928 10.8715L23.9856 10.8758L23.9827 10.8801L23.9784 10.883L23.974 10.8859L23.9711 10.8902L23.9683 10.8945L23.9639 10.8974L23.9596 10.9003L23.9567 10.9046L23.9538 10.9089L23.9495 10.9118L23.9423 10.9262L23.9351 10.9406L23.9307 10.9435C23.9288 10.9464 23.8678 11.028 23.7475 11.1884C23.6273 11.3498 23.5624 11.4314 23.5528 11.4334C23.5431 11.4363 23.5297 11.4507 23.5124 11.4766C23.496 11.5035 23.394 11.6106 23.2065 11.7979C23.0189 11.9852 22.8352 12.1518 22.6554 12.2978C22.4746 12.4448 22.3832 12.6253 22.3813 12.8395C22.3784 13.0528 22.3673 13.2939 22.3481 13.5628C22.3288 13.8317 22.2928 14.1223 22.2399 14.4345C22.187 14.7466 22.1052 15.0996 21.9946 15.4934C21.884 15.8872 21.7493 16.2714 21.5906 16.646C21.4319 17.0206 21.266 17.3568 21.0929 17.6545C20.9197 17.9523 20.761 18.2044 20.6168 18.4109C20.4725 18.6174 20.3258 18.8119 20.1767 18.9944C20.0277 19.1769 19.8391 19.3825 19.6112 19.6111C19.3823 19.8387 19.2572 19.9636 19.2361 19.9857C19.214 20.0068 19.1197 20.0856 18.9533 20.2219C18.7879 20.3593 18.6099 20.4966 18.4195 20.634C18.23 20.7704 18.0559 20.8842 17.8972 20.9754C17.7385 21.0667 17.5471 21.1709 17.323 21.2881C17.0999 21.4062 16.8584 21.5157 16.5987 21.6166C16.339 21.7174 16.0649 21.8111 15.7764 21.8975C15.4878 21.984 15.2089 22.0512 14.9396 22.0992C14.6703 22.1472 14.3649 22.1881 14.0234 22.2217L13.5113 22.2721V22.2793H12.5735V22.2721L12.4509 22.2649C12.3691 22.2601 12.3018 22.2553 12.2489 22.2505C12.196 22.2457 11.9964 22.2193 11.6501 22.1713C11.3039 22.1232 11.0322 22.0752 10.835 22.0272C10.6378 21.9792 10.3445 21.8879 9.95491 21.7534C9.56537 21.619 9.2321 21.4831 8.95509 21.3457C8.67905 21.2093 8.50593 21.1229 8.43571 21.0864C8.36646 21.0508 8.28855 21.0067 8.20198 20.9538L8.07214 20.8746L8.06927 20.8703L8.06492 20.8674L8.0606 20.8645L8.05771 20.8602L8.04328 20.853L8.02885 20.8458L8.02598 20.8415L8.02164 20.8386L8.01731 20.8357L8.01443 20.8314L8.01156 20.827L8.00721 20.8242H8V20.7954L8.01443 20.7982L8.02885 20.8026L8.09378 20.8098C8.13706 20.8146 8.25489 20.8218 8.44725 20.8314C8.63962 20.841 8.844 20.841 9.06041 20.8314C9.27683 20.8218 9.49806 20.8001 9.72408 20.7665C9.95011 20.7329 10.217 20.6753 10.5248 20.5936C10.8326 20.512 11.1154 20.415 11.3731 20.3026C11.63 20.1893 11.8127 20.1048 11.9214 20.049C12.0291 19.9943 12.1936 19.8925 12.4148 19.7436L12.7466 19.5203L12.7495 19.516L12.7538 19.5131L12.7582 19.5102L12.761 19.5059L12.7639 19.5016L12.7683 19.4987L12.7726 19.4958L12.7755 19.4915L12.7899 19.4872L12.8043 19.4843L12.8072 19.4699L12.8115 19.4555L12.8159 19.4526L12.8188 19.4483L12.7033 19.441C12.6264 19.4363 12.5518 19.4314 12.4797 19.4266C12.4076 19.4218 12.2946 19.4002 12.1407 19.3618C11.9868 19.3234 11.8209 19.2658 11.6429 19.1889C11.465 19.1121 11.2919 19.0208 11.1235 18.9152C10.9552 18.8095 10.8335 18.7216 10.7585 18.6515C10.6845 18.5823 10.5883 18.4844 10.47 18.3576C10.3526 18.2299 10.2507 18.0987 10.1641 17.9643C10.0775 17.8298 9.99483 17.6747 9.91597 17.4989L9.79621 17.2367L9.789 17.2151L9.78179 17.1935L9.77746 17.1791L9.77457 17.1647L9.79621 17.1675L9.81785 17.1719L9.97656 17.1935C10.0824 17.2079 10.2483 17.2127 10.4743 17.2079C10.7003 17.2031 10.8566 17.1935 10.9432 17.1791C11.0298 17.1647 11.0827 17.1551 11.1019 17.1503L11.1307 17.1431L11.1668 17.1359L11.2029 17.1286L11.2058 17.1243L11.2101 17.1214L11.2144 17.1186L11.2173 17.1142L11.1885 17.107L11.1596 17.0998L11.1307 17.0926L11.1019 17.0854L11.073 17.0782C11.0538 17.0734 11.0201 17.0638 10.972 17.0494C10.924 17.035 10.7941 16.9822 10.5825 16.8909C10.3709 16.7997 10.2026 16.7108 10.0775 16.6244C9.9522 16.5377 9.83267 16.4429 9.71975 16.3406C9.60721 16.2368 9.48363 16.1033 9.34896 15.94C9.21431 15.7768 9.09409 15.587 8.98828 15.3709C8.88248 15.1548 8.80313 14.9483 8.75023 14.7514C8.69753 14.5557 8.66277 14.3555 8.64636 14.1535L8.62038 13.8509L8.63481 13.8538L8.64923 13.8582L8.66366 13.8654L8.67809 13.8726L8.69252 13.8798L8.70694 13.887L8.93057 13.9878C9.07966 14.0551 9.26481 14.1127 9.48602 14.1607C9.70725 14.2087 9.8395 14.2352 9.88278 14.24L9.9477 14.2472H10.0775L10.0747 14.2428L10.0703 14.24L10.066 14.2371L10.0631 14.2327L10.0602 14.2284L10.0559 14.2255L10.0516 14.2227L10.0487 14.2183L10.0343 14.2111L10.0198 14.2039L10.017 14.1996L10.0126 14.1967L10.0083 14.1938L10.0054 14.1895L9.99098 14.1823L9.97656 14.1751L9.97368 14.1708C9.9708 14.1689 9.92944 14.1381 9.84959 14.0786C9.77072 14.0181 9.68801 13.9398 9.60144 13.8437C9.51488 13.7477 9.42831 13.6468 9.34175 13.5412C9.25503 13.4353 9.17778 13.322 9.11091 13.2026C9.04359 13.0826 8.97241 12.9298 8.89739 12.7445C8.82333 12.56 8.76706 12.3742 8.72858 12.1869C8.69012 11.9996 8.66848 11.8147 8.66366 11.6322C8.65886 11.4497 8.66366 11.2936 8.67809 11.164C8.69252 11.0343 8.72137 10.8878 8.76465 10.7245C8.80794 10.5612 8.87046 10.3884 8.95221 10.2059L9.07484 9.93212L9.08206 9.9105L9.08927 9.88889L9.09361 9.88601L9.09648 9.88169L9.09937 9.87737L9.1037 9.87449L9.10804 9.87737L9.11091 9.88169L9.1138 9.88601L9.11812 9.88889L9.12247 9.89178L9.12534 9.8961L9.12822 9.90042L9.13255 9.9033L9.13977 9.91771L9.14698 9.93212L9.15132 9.935L9.15419 9.93932L9.34896 10.1554C9.47881 10.2995 9.63271 10.4604 9.81064 10.6381C9.98859 10.8158 10.0872 10.908 10.1064 10.9147C10.1256 10.9224 10.1497 10.9445 10.1785 10.981C10.2074 11.0165 10.3036 11.1015 10.4671 11.236C10.6306 11.3705 10.8446 11.5265 11.1091 11.7042C11.3736 11.8819 11.667 12.0572 11.9892 12.2301C12.3114 12.403 12.6577 12.5591 13.028 12.6984C13.3983 12.8376 13.658 12.9289 13.807 12.9721C13.9561 13.0153 14.211 13.0705 14.5717 13.1378C14.9324 13.205 15.2041 13.2482 15.3868 13.2674C15.5696 13.2867 15.6946 13.2977 15.7619 13.3006L15.8629 13.3035L15.8601 13.2819L15.8557 13.2602L15.8269 13.0801C15.8076 12.9601 15.798 12.792 15.798 12.5759C15.798 12.3598 15.8149 12.1605 15.8485 11.978C15.8822 11.7955 15.9327 11.6106 16 11.4233C16.0673 11.236 16.1332 11.0857 16.1977 10.9723C16.2631 10.86 16.3487 10.7317 16.4545 10.5877C16.5603 10.4436 16.6973 10.2947 16.8656 10.141C17.034 9.98734 17.2263 9.85047 17.4427 9.73041C17.6592 9.61035 17.8587 9.5191 18.0415 9.45667C18.2242 9.39424 18.3781 9.35341 18.5032 9.33421C18.6282 9.315 18.6907 9.30395 18.6907 9.30107V9.30107Z" fill="white"/>
</svg>
