<svg width="18" height="20" viewBox="0 0 18 20" fill="none" xmlns="http://www.w3.org/2000/svg">
<path fill-rule="evenodd" clip-rule="evenodd" d="M1.35366 8.86398C1.98641 6.35713 4.12205 4.6145 6.56152 4.6145H11.6766C14.2185 4.6145 16.4153 6.50336 16.9488 9.14782L17.8912 13.8181C18.533 16.9993 16.2541 20 13.1963 20H4.80449C1.646 20 -0.652256 16.8111 0.166993 13.5654L1.35366 8.86398ZM6.56152 6.03564C4.72627 6.03564 3.11959 7.34665 2.64356 9.23259L1.45689 13.934C0.865514 16.2769 2.52452 18.5788 4.80449 18.5788H13.1963C15.4036 18.5788 17.0487 16.4128 16.5853 14.1164L15.643 9.44613C15.2416 7.45666 13.5889 6.03564 11.6766 6.03564H6.56152Z" fill="#0B0E2C"/>
<path fill-rule="evenodd" clip-rule="evenodd" d="M9.02933 0C9.75759 0.0023025 10.4624 0.274143 11.0229 0.768901C11.5834 1.26366 11.9647 1.95051 12.1013 2.71165C12.1705 3.09712 11.9329 3.46929 11.5707 3.54291C11.2084 3.61654 10.8586 3.36374 10.7894 2.97827C10.711 2.54119 10.492 2.14678 10.1702 1.86267C9.84881 1.57901 9.44485 1.42295 9.02736 1.42114C8.61138 1.42296 8.20879 1.57785 7.8879 1.85957C7.5665 2.14174 7.34692 2.53371 7.26656 2.96875C7.19542 3.35381 6.84438 3.60461 6.48249 3.52892C6.12059 3.45323 5.88489 3.07971 5.95602 2.69464C6.09596 1.93717 6.47827 1.2547 7.03788 0.763396C7.59749 0.272094 8.29983 0.00232259 9.02533 6.05046e-08L9.02734 0.710546L9.02933 0Z" fill="#0B0E2C"/>
</svg>
