<svg width="48" height="48" viewBox="0 0 48 48" fill="none" xmlns="http://www.w3.org/2000/svg">
<rect width="48" height="48" rx="14" fill="#EDFBEE"/>
<path fill-rule="evenodd" clip-rule="evenodd" d="M18.0795 8.88618H28.0741C28.4372 8.88618 28.7845 9.03423 29.036 9.29614L36.6468 17.2241C36.8852 17.4724 37.0183 17.8032 37.0183 18.1474V31.9159C37.0434 35.7825 33.9989 38.9729 30.1357 39.1297C30.1177 39.1304 30.0997 39.1308 30.0816 39.1308H18.0943C18.0549 39.1317 18.0208 39.1315 17.997 39.1313C17.9795 39.1312 17.9694 39.1311 17.962 39.131C17.9531 39.1309 17.948 39.1308 17.9388 39.1308C17.9289 39.1308 17.919 39.1307 17.9092 39.1305C14.0029 39.0436 10.9058 35.8108 10.9826 31.9069V15.8229C10.9826 15.8124 10.9827 15.8019 10.983 15.7914C11.0737 11.9419 14.2296 8.87281 18.0795 8.88618ZM13.6493 15.8396V31.9206C13.6493 31.9303 13.6492 31.94 13.6489 31.9497C13.5959 34.385 15.5232 36.4035 17.9563 36.4642C17.9678 36.4642 17.9784 36.4643 17.9871 36.4644L18.0189 36.4647C18.0297 36.4648 18.0344 36.4648 18.0354 36.4648C18.0493 36.4643 18.0632 36.4641 18.0771 36.4641H30.0529C32.4691 36.3527 34.369 34.352 34.3517 31.9302L34.3517 31.9206V18.6839L27.5058 11.5528H18.0719C15.677 11.5436 13.7134 13.4489 13.6493 15.8396Z" fill="#45C74E"/>
<path fill-rule="evenodd" clip-rule="evenodd" d="M27.679 8.86847C28.4154 8.86847 29.0124 9.46542 29.0124 10.2018V14.573C29.0124 15.9711 30.1416 17.104 31.5398 17.1089H35.6776C36.414 17.1089 37.0109 17.7059 37.0109 18.4423C37.0109 19.1787 36.414 19.7756 35.6776 19.7756H31.5341C28.6656 19.7675 26.3457 17.4418 26.3457 14.573V10.2018C26.3457 9.46542 26.9427 8.86847 27.679 8.86847Z" fill="#45C74E"/>
<path fill-rule="evenodd" clip-rule="evenodd" d="M17.9512 29.1479C17.9512 28.4115 18.5481 27.8145 19.2845 27.8145H27.3988C28.1351 27.8145 28.7321 28.4115 28.7321 29.1479C28.7321 29.8842 28.1351 30.4812 27.3988 30.4812H19.2845C18.5481 30.4812 17.9512 29.8842 17.9512 29.1479Z" fill="#45C74E"/>
<path fill-rule="evenodd" clip-rule="evenodd" d="M17.9495 23.5092C17.9495 22.7728 18.5464 22.1759 19.2828 22.1759H24.3257C25.062 22.1759 25.659 22.7728 25.659 23.5092C25.659 24.2456 25.062 24.8425 24.3257 24.8425H19.2828C18.5464 24.8425 17.9495 24.2456 17.9495 23.5092Z" fill="#45C74E"/>
</svg>
