<svg width="32" height="32" viewBox="0 0 32 32" fill="none" xmlns="http://www.w3.org/2000/svg">
<rect width="32" height="32" rx="16" fill="#E60023"/>
<path d="M15.51 6.17114C10.2578 6.17114 6 10.4289 6 15.6812C6 19.7101 8.50668 23.1543 12.0443 24.5399C11.9612 23.7875 11.8861 22.6303 12.0773 21.8089C12.2501 21.0667 13.1925 17.0818 13.1925 17.0818C13.1925 17.0818 12.908 16.5121 12.908 15.6698C12.908 14.3475 13.6745 13.3602 14.6288 13.3602C15.4402 13.3602 15.832 13.9694 15.832 14.6998C15.832 15.5158 15.3125 16.7357 15.0445 17.8663C14.8204 18.8128 15.5191 19.5847 16.4527 19.5847C18.143 19.5847 19.4423 17.8025 19.4423 15.2299C19.4423 12.9528 17.8061 11.3608 15.4699 11.3608C12.7639 11.3608 11.1757 13.3904 11.1757 15.4879C11.1757 16.3053 11.4905 17.1817 11.8834 17.6582C11.9611 17.7524 11.9725 17.8348 11.9494 17.931C11.8772 18.2313 11.7167 18.8773 11.6853 19.0095C11.6438 19.1836 11.5474 19.2205 11.3672 19.1366C10.1795 18.5838 9.43685 16.8472 9.43685 15.4524C9.43685 12.4525 11.6165 9.69748 15.7205 9.69748C19.0195 9.69748 21.5833 12.0483 21.5833 15.19C21.5833 18.4675 19.5167 21.1053 16.6484 21.1053C15.6847 21.1053 14.7788 20.6046 14.4687 20.0132C14.4687 20.0132 13.9918 21.829 13.8762 22.274C13.6615 23.1 13.0819 24.1354 12.6942 24.7671C13.584 25.0426 14.5296 25.1912 15.51 25.1912C20.7623 25.1912 25.0201 20.9334 25.0201 15.6812C25.0201 10.4289 20.7623 6.17114 15.51 6.17114Z" fill="white"/>
</svg>
