<svg width="48" height="48" viewBox="0 0 48 48" fill="none" xmlns="http://www.w3.org/2000/svg">
<rect width="48" height="48" rx="14" fill="#F6F1FF"/>
<path fill-rule="evenodd" clip-rule="evenodd" d="M21.3703 13.8666C21.9431 14.4394 21.9431 15.3681 21.3703 15.9408L13.3111 24L21.3703 32.0592C21.9431 32.632 21.9431 33.5606 21.3703 34.1334C20.7975 34.7061 19.8689 34.7061 19.2961 34.1334L10.1998 25.0371C9.62707 24.4643 9.62707 23.5357 10.1998 22.9629L19.2961 13.8666C19.8689 13.2939 20.7975 13.2939 21.3703 13.8666Z" fill="#9240FB"/>
<path fill-rule="evenodd" clip-rule="evenodd" d="M26.6295 13.8666C27.2023 13.2939 28.1309 13.2939 28.7037 13.8666L37.8 22.9629C38.3728 23.5357 38.3728 24.4643 37.8 25.0371L28.7037 34.1334C28.1309 34.7061 27.2023 34.7061 26.6295 34.1334C26.0568 33.5606 26.0568 32.632 26.6295 32.0592L34.6887 24L26.6295 15.9408C26.0568 15.3681 26.0568 14.4394 26.6295 13.8666Z" fill="#9240FB"/>
</svg>
