<svg width="32" height="32" viewBox="0 0 32 32" fill="none" xmlns="http://www.w3.org/2000/svg">
<rect width="32" height="32" rx="16" fill="#FF550D"/>
<path d="M25.2301 15.2211C25.2328 15.4086 25.2096 15.5958 25.1603 15.7768C25.111 15.9577 25.0364 16.1312 24.9386 16.2913C24.8411 16.4515 24.7213 16.5972 24.5831 16.7241C24.4449 16.8511 24.2895 16.9578 24.1215 17.0413C24.1253 17.0913 24.1284 17.1416 24.1301 17.1919C24.1342 17.2922 24.1342 17.3926 24.1301 17.4929C24.1284 17.5432 24.1253 17.5935 24.1215 17.6435C24.1215 20.7091 20.5496 23.1999 16.1428 23.1999C11.736 23.1999 8.16402 20.7091 8.16402 17.6435C8.16026 17.5935 8.15718 17.5432 8.15547 17.4929C8.15135 17.3926 8.15135 17.2922 8.15547 17.1919C8.15718 17.1416 8.16026 17.0913 8.16402 17.0413C7.90083 16.9203 7.66707 16.7436 7.47891 16.5234C7.29076 16.3031 7.1527 16.0447 7.0743 15.7658C6.99603 15.4868 6.97935 15.1942 7.02544 14.9081C7.07152 14.6221 7.17925 14.3494 7.34117 14.1092C7.50295 13.8689 7.71506 13.6667 7.96279 13.5167C8.21051 13.3666 8.48793 13.2722 8.77577 13.2401C9.06366 13.2078 9.35512 13.2386 9.62995 13.3301C9.90479 13.4217 10.1564 13.5719 10.3674 13.7704C10.7591 13.5049 11.1695 13.2681 11.5954 13.0619C12.0213 12.8559 12.4617 12.6807 12.913 12.5384C13.3642 12.396 13.8255 12.2869 14.2925 12.2113C14.7595 12.1357 15.2317 12.0943 15.7048 12.0871L16.7176 7.33816C16.7289 7.28307 16.7511 7.23107 16.7829 7.18454C16.8144 7.13835 16.8551 7.09866 16.902 7.06821C16.9492 7.03776 17.0019 7.01689 17.0573 7.00662C17.1124 6.9967 17.1692 6.99773 17.224 7.0097L20.5769 7.6803C20.9153 7.099 21.6256 6.84992 22.2528 7.09216C22.8799 7.33439 23.2385 7.99644 23.0982 8.65404C22.9583 9.31163 22.3609 9.77011 21.6896 9.73555C21.018 9.70099 20.4709 9.18367 20.399 8.51513L17.4703 7.89927L16.5807 12.1692C17.0481 12.1791 17.5144 12.2229 17.9756 12.2999C18.8992 12.4539 19.7958 12.7403 20.6375 13.1505C21.0579 13.3551 21.463 13.5897 21.8497 13.8525C22.1277 13.5856 22.4771 13.4049 22.8556 13.3322C23.2341 13.2592 23.6257 13.2973 23.983 13.442C24.3403 13.5866 24.6482 13.8315 24.8695 14.1471C25.0908 14.4628 25.216 14.8358 25.2301 15.2211V15.2211ZM11.6484 17.1135C11.7175 17.2794 11.8181 17.4303 11.9454 17.5573C12.0723 17.6845 12.2232 17.7851 12.3891 17.8542C12.5552 17.9229 12.7332 17.9583 12.913 17.9583C13.4665 17.9583 13.9654 17.6247 14.1775 17.1135C14.3893 16.602 14.2719 16.0135 13.8805 15.6221C13.4891 15.2307 12.9006 15.1133 12.3891 15.3251C11.878 15.5373 11.5444 16.0361 11.5444 16.5897C11.5444 16.7693 11.5796 16.9472 11.6484 17.1135V17.1135ZM19.4869 20.3988C19.557 20.3303 19.5971 20.2369 19.5984 20.1391C19.5998 20.0409 19.5618 19.9464 19.4934 19.8763C19.425 19.8062 19.3315 19.7661 19.2337 19.7648C19.1355 19.7634 19.0411 19.8014 18.962 19.8606C18.7562 20.0082 18.5383 20.1381 18.3106 20.2489C18.0829 20.3598 17.8462 20.4512 17.603 20.5223C17.3601 20.5931 17.1114 20.6434 16.8599 20.6725C16.6081 20.7016 16.3546 20.7091 16.1017 20.6954C15.8492 20.7067 15.596 20.6964 15.3452 20.6649C15.0944 20.6338 14.8467 20.5811 14.6049 20.5076C14.3626 20.4343 14.1276 20.3406 13.9014 20.2277C13.6753 20.1148 13.459 19.9827 13.2551 19.8332C13.1843 19.775 13.0943 19.7453 13.0026 19.7497C12.9109 19.7542 12.8243 19.7928 12.7593 19.8575C12.6947 19.9225 12.656 20.0091 12.6516 20.1008C12.6471 20.1924 12.6769 20.2824 12.735 20.3533C12.9756 20.5346 13.2312 20.6947 13.499 20.8323C13.7669 20.9698 14.0465 21.0837 14.3339 21.1734C14.6213 21.263 14.9159 21.3277 15.2146 21.367C15.5132 21.406 15.8147 21.4194 16.1154 21.4071C16.4162 21.4194 16.7176 21.406 17.0163 21.367C17.6145 21.2883 18.1948 21.1074 18.7318 20.8323C18.9997 20.6947 19.2553 20.5346 19.4958 20.3533L19.4869 20.3988ZM19.2357 18.0677C19.4212 18.0698 19.6053 18.0339 19.7767 17.9627C19.9481 17.8912 20.1031 17.7858 20.2324 17.6527C20.3617 17.5196 20.4623 17.3616 20.5287 17.1881C20.5951 17.0148 20.6255 16.8298 20.618 16.6444C20.618 16.0908 20.2844 15.592 19.7733 15.3799C19.2618 15.1681 18.6733 15.2854 18.2819 15.6769C17.8904 16.0683 17.7731 16.6567 17.9849 17.1683C18.197 17.6794 18.6958 18.013 19.2494 18.013L19.2357 18.0677Z" fill="white"/>
</svg>
