<svg width="52" height="52" viewBox="0 0 52 52" fill="none" xmlns="http://www.w3.org/2000/svg">
<rect width="52" height="52" rx="11" fill="#FF0000"/>
<path d="M26.7428 37.6792L19.8706 37.5521C17.6455 37.5079 15.415 37.5963 13.2336 37.1377C9.91507 36.4525 9.67998 33.093 9.43396 30.275C9.095 26.3133 9.22621 22.2797 9.86586 18.3511C10.2267 16.1464 11.6481 14.8314 13.8459 14.6877C21.2647 14.1683 28.7328 14.2291 36.1352 14.4722C36.917 14.4943 37.7043 14.6159 38.4751 14.754C42.2802 15.4281 42.3731 19.2352 42.6192 22.4399C42.8652 25.6778 42.7613 28.9323 42.2911 32.1482C41.9139 34.8114 41.1923 37.0437 38.1471 37.2592C34.3311 37.541 30.6025 37.7676 26.7756 37.6957C26.7756 37.6792 26.7537 37.6792 26.7428 37.6792V37.6792ZM22.7026 30.9381C25.5783 29.2694 28.3993 27.6283 31.2586 25.9707C28.3774 24.302 25.5619 22.6609 22.7026 21.0033V30.9381Z" fill="white"/>
</svg>
