<svg width="50" height="50" viewBox="0 0 50 50" fill="none" xmlns="http://www.w3.org/2000/svg">
<rect width="50" height="50" rx="12" fill="#F4F7FF"/>
<path d="M39.8767 24.4002C36.8474 17.3667 31.1486 13.0027 25 13.0027C18.8513 13.0027 13.1526 17.3667 10.1232 24.4002C10.0407 24.5894 9.99805 24.7936 9.99805 25C9.99805 25.2065 10.0407 25.4107 10.1232 25.5999C13.1526 32.6334 18.8513 36.9974 25 36.9974C31.1486 36.9974 36.8474 32.6334 39.8767 25.5999C39.9593 25.4107 40.0019 25.2065 40.0019 25C40.0019 24.7936 39.9593 24.5894 39.8767 24.4002V24.4002ZM25 33.9981C20.246 33.9981 15.747 30.5638 13.1526 25C15.747 19.4363 20.246 16.002 25 16.002C29.7539 16.002 34.2529 19.4363 36.8474 25C34.2529 30.5638 29.7539 33.9981 25 33.9981ZM25 19.0014C23.8135 19.0014 22.6538 19.3532 21.6673 20.0123C20.6808 20.6715 19.9119 21.6083 19.4579 22.7045C19.0039 23.8006 18.8851 25.0067 19.1166 26.1703C19.348 27.334 19.9193 28.4028 20.7583 29.2418C21.5972 30.0807 22.6661 30.652 23.8297 30.8835C24.9933 31.1149 26.1995 30.9961 27.2956 30.5421C28.3917 30.0881 29.3285 29.3192 29.9877 28.3327C30.6468 27.3463 30.9986 26.1865 30.9986 25C30.9986 23.4091 30.3666 21.8833 29.2417 20.7583C28.1167 19.6334 26.5909 19.0014 25 19.0014V19.0014ZM25 27.9994C24.4068 27.9994 23.8269 27.8235 23.3336 27.4939C22.8404 27.1643 22.456 26.6959 22.2289 26.1478C22.0019 25.5998 21.9425 24.9967 22.0583 24.4149C22.174 23.8331 22.4597 23.2987 22.8791 22.8792C23.2986 22.4597 23.833 22.1741 24.4148 22.0583C24.9966 21.9426 25.5997 22.002 26.1478 22.229C26.6958 22.456 27.1643 22.8405 27.4938 23.3337C27.8234 23.8269 27.9993 24.4068 27.9993 25C27.9993 25.7955 27.6833 26.5584 27.1208 27.1209C26.5583 27.6834 25.7954 27.9994 25 27.9994Z" fill="#1476FF"/>
</svg>
