<svg width="40" height="40" viewBox="0 0 40 40" fill="none" xmlns="http://www.w3.org/2000/svg">
<mask id="mask0_2536_57968" style="mask-type:alpha" maskUnits="userSpaceOnUse" x="0" y="0" width="40" height="40">
<rect width="40" height="40" rx="20" fill="#1476FF"/>
</mask>
<g mask="url(#mask0_2536_57968)">
<rect width="40" height="40" rx="20" fill="#E4FAED"/>
<rect x="-0.303711" width="40" height="40" rx="8.88889" fill="#FFF7E8"/>
<path fill-rule="evenodd" clip-rule="evenodd" d="M12.6705 16.0055C13.0557 15.5278 13.7552 15.4528 14.2329 15.838L18.9225 19.6194C19.3957 19.9927 20.0563 19.9931 20.5299 19.6206L25.1782 15.8409C25.6543 15.4537 26.3541 15.5258 26.7413 16.002C27.1284 16.4781 27.0563 17.1779 26.5802 17.565L21.9259 21.3496L21.9155 21.358C20.6317 22.3765 18.8223 22.3765 17.5384 21.358L17.5316 21.3525L12.838 17.5679C12.3603 17.1827 12.2853 16.4832 12.6705 16.0055Z" fill="#FFB016"/>
<path fill-rule="evenodd" clip-rule="evenodd" d="M8.11035 16.4085C8.11035 12.7093 10.6312 9.46289 14.5543 9.46289H24.8382C28.7613 9.46289 31.2822 12.7093 31.2822 16.4085V23.603C31.2822 27.3007 28.762 30.5497 24.8367 30.5397H14.5558C10.6305 30.5497 8.11035 27.3007 8.11035 23.603V16.4085ZM14.5543 11.6851C12.1059 11.6851 10.3326 13.6737 10.3326 16.4085V23.603C10.3326 26.3387 12.1059 28.3243 14.5513 28.3175L14.5543 28.3175L24.8382 28.3175L24.8413 28.3175C27.2866 28.3243 29.06 26.3387 29.06 23.603V16.4085C29.06 13.6737 27.2866 11.6851 24.8382 11.6851H14.5543Z" fill="#FFB016"/>
</g>
</svg>
