<svg width="32" height="32" viewBox="0 0 32 32" fill="none" xmlns="http://www.w3.org/2000/svg">
<path d="M30.0061 8.64069C30.0061 8.10644 29.6778 7.65278 29.2122 7.46474L17.1661 1.28354H17.1423C16.799 1.10745 16.414 1 15.9991 1C15.5843 1 15.1992 1.10745 14.856 1.28354H14.8321L2.7861 7.46474C2.3205 7.65278 1.99219 8.10644 1.99219 8.64069C1.99219 9.16898 2.31453 9.62264 2.77715 9.81664V9.84052L14.8411 16.0038L14.853 15.9978C15.1992 16.1739 15.5843 16.2814 15.9991 16.2814C16.414 16.2814 16.799 16.1739 17.1452 15.9978L17.1572 16.0038L29.2211 9.84052V9.81664C29.6837 9.62264 30.0061 9.16898 30.0061 8.64069Z" fill="#1476FF"/>
<path d="M29.2122 15.1054L26.8543 13.8937C23.1533 15.7889 18.1063 18.3647 18.0466 18.3886C17.39 18.681 16.7035 18.8273 15.9991 18.8273C15.2918 18.8273 14.6023 18.6781 13.9457 18.3856C13.889 18.3647 8.84493 15.7889 5.14397 13.8937L2.7861 15.1054C2.3205 15.2935 1.99219 15.7471 1.99219 16.2814C1.99219 16.8097 2.31453 17.2633 2.77715 17.4573V17.4812L14.8411 23.6445L14.853 23.6385C15.1992 23.8146 15.5843 23.9221 15.9991 23.9221C16.414 23.9221 16.799 23.8146 17.1452 23.6385L17.1572 23.6445L29.2211 17.4812V17.4573C29.6837 17.2633 30.0061 16.8097 30.0061 16.2814C30.0061 15.7471 29.6778 15.2935 29.2122 15.1054Z" fill="#2FA8FF"/>
<path d="M29.2122 22.7462L26.8543 21.5344C23.1533 23.4297 18.1063 26.0054 18.0466 26.0293C17.39 26.3218 16.7035 26.468 15.9991 26.468C15.2918 26.468 14.6023 26.3188 13.9457 26.0263C13.889 26.0054 8.84493 23.4297 5.14397 21.5344L2.7861 22.7462C2.3205 22.9342 1.99219 23.3879 1.99219 23.9221C1.99219 24.4504 2.31453 24.9041 2.77715 25.0981V25.122L14.8411 31.2853L14.853 31.2793C15.1992 31.4554 15.5843 31.5628 15.9991 31.5628C16.414 31.5628 16.799 31.4554 17.1452 31.2793L17.1572 31.2853L29.2211 25.122V25.0981C29.6837 24.9041 30.0061 24.4504 30.0061 23.9221C30.0061 23.3879 29.6778 22.9342 29.2122 22.7462Z" fill="#3CD0FF"/>
</svg>
