<svg width="48" height="48" viewBox="0 0 48 48" fill="none" xmlns="http://www.w3.org/2000/svg">
<rect width="48" height="48" rx="14" fill="#FFF4F4"/>
<path fill-rule="evenodd" clip-rule="evenodd" d="M11.2779 18.7953C12.409 17.6641 13.9432 17.0287 15.5429 17.0287C17.1426 17.0287 18.6768 17.6641 19.8079 18.7953C20.9391 19.9264 21.5746 21.4606 21.5746 23.0603C21.5746 24.66 20.9391 26.1942 19.8079 27.3254C18.6768 28.4565 17.1426 29.092 15.5429 29.092C13.9432 29.092 12.409 28.4565 11.2779 27.3254C10.1467 26.1942 9.51123 24.66 9.51123 23.0603C9.51123 21.4606 10.1467 19.9264 11.2779 18.7953ZM15.5429 19.6953C14.6504 19.6953 13.7945 20.0498 13.1635 20.6809C12.5324 21.312 12.1779 22.1679 12.1779 23.0603C12.1779 23.9528 12.5324 24.8087 13.1635 25.4397C13.7945 26.0708 14.6504 26.4253 15.5429 26.4253C16.4354 26.4253 17.2913 26.0708 17.9223 25.4397C18.5534 24.8087 18.9079 23.9528 18.9079 23.0603C18.9079 22.1679 18.5534 21.312 17.9223 20.6809C17.2913 20.0498 16.4354 19.6953 15.5429 19.6953Z" fill="#FF414C"/>
<path fill-rule="evenodd" clip-rule="evenodd" d="M28.1919 12.2176C29.3231 11.0864 30.8573 10.451 32.457 10.451C34.0567 10.451 35.5908 11.0864 36.722 12.2176C37.8532 13.3488 38.4886 14.8829 38.4886 16.4826C38.4886 18.0823 37.8532 19.6165 36.722 20.7477C35.5908 21.8788 34.0567 22.5143 32.457 22.5143C30.8573 22.5143 29.3231 21.8788 28.1919 20.7477C27.0608 19.6165 26.4253 18.0823 26.4253 16.4826C26.4253 14.8829 27.0608 13.3488 28.1919 12.2176ZM32.457 13.1176C31.5645 13.1176 30.7086 13.4722 30.0775 14.1032C29.4465 14.7343 29.092 15.5902 29.092 16.4826C29.092 17.3751 29.4465 18.231 30.0775 18.862C30.7086 19.4931 31.5645 19.8476 32.457 19.8476C33.3494 19.8476 34.2053 19.4931 34.8364 18.862C35.4674 18.231 35.822 17.3751 35.822 16.4826C35.822 15.5902 35.4674 14.7343 34.8364 14.1032C34.2053 13.4722 33.3494 13.1176 32.457 13.1176Z" fill="#FF414C"/>
<path fill-rule="evenodd" clip-rule="evenodd" d="M28.1919 27.2523C29.3231 26.1211 30.8573 25.4857 32.457 25.4857C34.0567 25.4857 35.5908 26.1211 36.722 27.2523C37.8532 28.3835 38.4886 29.9176 38.4886 31.5173C38.4886 33.117 37.8532 34.6512 36.722 35.7824C35.5908 36.9135 34.0567 37.549 32.457 37.549C30.8573 37.549 29.3231 36.9135 28.1919 35.7824C27.0608 34.6512 26.4253 33.117 26.4253 31.5173C26.4253 29.9176 27.0608 28.3835 28.1919 27.2523ZM32.457 28.1523C31.5645 28.1523 30.7086 28.5069 30.0775 29.1379C29.4465 29.769 29.092 30.6249 29.092 31.5173C29.092 32.4098 29.4465 33.2657 30.0775 33.8968C30.7086 34.5278 31.5645 34.8823 32.457 34.8823C33.3494 34.8823 34.2053 34.5278 34.8364 33.8968C35.4674 33.2657 35.822 32.4098 35.822 31.5173C35.822 30.6249 35.4674 29.769 34.8364 29.1379C34.2053 28.5069 33.3494 28.1523 32.457 28.1523Z" fill="#FF414C"/>
<path fill-rule="evenodd" clip-rule="evenodd" d="M29.3198 17.7033C29.5867 18.3896 29.2467 19.1623 28.5604 19.4292L20.4066 22.6003C19.7203 22.8672 18.9475 22.5272 18.6806 21.8409C18.4137 21.1546 18.7537 20.3819 19.44 20.115L27.5938 16.9439C28.2801 16.677 29.0529 17.017 29.3198 17.7033Z" fill="#FF414C"/>
<path fill-rule="evenodd" clip-rule="evenodd" d="M18.5537 24.5664C18.883 23.9077 19.6839 23.6407 20.3425 23.9701L28.8496 28.2236C29.5083 28.5529 29.7752 29.3538 29.4459 30.0125C29.1166 30.6711 28.3157 30.9381 27.6571 30.6088L19.1499 26.3552C18.4913 26.0259 18.2243 25.225 18.5537 24.5664Z" fill="#FF414C"/>
</svg>
