<svg width="30" height="34" viewBox="0 0 30 34" fill="none" xmlns="http://www.w3.org/2000/svg">
<g clip-path="url(#clip0_2436_64131)">
<path d="M29.0061 9.64069C29.0061 9.10644 28.6778 8.65278 28.2122 8.46474L16.1661 2.28354H16.1423C15.799 2.10745 15.414 2 14.9991 2C14.5843 2 14.1992 2.10745 13.856 2.28354H13.8321L1.7861 8.46474C1.3205 8.65278 0.992188 9.10644 0.992188 9.64069C0.992188 10.169 1.31453 10.6226 1.77715 10.8166V10.8405L13.8411 17.0038L13.853 16.9978C14.1992 17.1739 14.5843 17.2814 14.9991 17.2814C15.414 17.2814 15.799 17.1739 16.1452 16.9978L16.1572 17.0038L28.2211 10.8405V10.8166C28.6837 10.6226 29.0061 10.169 29.0061 9.64069Z" fill="#1476FF"/>
<path d="M28.2122 16.1054L25.8543 14.8937C22.1533 16.7889 17.1063 19.3647 17.0466 19.3886C16.39 19.681 15.7035 19.8273 14.9991 19.8273C14.2918 19.8273 13.6023 19.6781 12.9457 19.3856C12.889 19.3647 7.84493 16.7889 4.14397 14.8937L1.7861 16.1054C1.3205 16.2935 0.992188 16.7471 0.992188 17.2814C0.992188 17.8097 1.31453 18.2633 1.77715 18.4573V18.4812L13.8411 24.6445L13.853 24.6385C14.1992 24.8146 14.5843 24.9221 14.9991 24.9221C15.414 24.9221 15.799 24.8146 16.1452 24.6385L16.1572 24.6445L28.2211 18.4812V18.4573C28.6837 18.2633 29.0061 17.8097 29.0061 17.2814C29.0061 16.7471 28.6778 16.2935 28.2122 16.1054Z" fill="#2FA8FF"/>
<path d="M28.2122 23.7462L25.8543 22.5344C22.1533 24.4297 17.1063 27.0054 17.0466 27.0293C16.39 27.3218 15.7035 27.468 14.9991 27.468C14.2918 27.468 13.6023 27.3188 12.9457 27.0263C12.889 27.0054 7.84493 24.4297 4.14397 22.5344L1.7861 23.7462C1.3205 23.9342 0.992188 24.3879 0.992188 24.9221C0.992188 25.4504 1.31453 25.9041 1.77715 26.0981V26.122L13.8411 32.2853L13.853 32.2793C14.1992 32.4554 14.5843 32.5628 14.9991 32.5628C15.414 32.5628 15.799 32.4554 16.1452 32.2793L16.1572 32.2853L28.2211 26.122V26.0981C28.6837 25.9041 29.0061 25.4504 29.0061 24.9221C29.0061 24.3879 28.6778 23.9342 28.2122 23.7462Z" fill="#3CD0FF"/>
</g>
<defs>
<clipPath id="clip0_2436_64131">
<rect width="30" height="34" fill="white"/>
</clipPath>
</defs>
</svg>
