<svg width="132" height="30" viewBox="0 0 132 30" fill="none" xmlns="http://www.w3.org/2000/svg">
<g clip-path="url(#clip0_2616_30696)">
<path d="M28.6811 7.82025C28.6811 7.29903 28.3607 6.85643 27.9065 6.67298L16.1543 0.642577H16.1311C15.7962 0.470779 15.4206 0.365952 15.0158 0.365952C14.6111 0.365952 14.2354 0.470779 13.9006 0.642577H13.8773L2.12513 6.67298C1.67089 6.85643 1.35059 7.29903 1.35059 7.82025C1.35059 8.33564 1.66506 8.77824 2.1164 8.96751V8.9908L13.886 15.0037L13.8977 14.9979C14.2354 15.1697 14.6111 15.2745 15.0158 15.2745C15.4206 15.2745 15.7962 15.1697 16.134 14.9979L16.1456 15.0037L27.9152 8.9908V8.96751C28.3666 8.77824 28.6811 8.33564 28.6811 7.82025Z" fill="#1476FF"/>
<path d="M27.9065 14.1273L25.6062 12.9451C21.9955 14.7941 17.0716 17.307 17.0133 17.3303C16.3727 17.6157 15.703 17.7583 15.0158 17.7583C14.3257 17.7583 13.6531 17.6128 13.0125 17.3274C12.9572 17.307 8.03615 14.7941 4.42548 12.9451L2.12513 14.1273C1.67089 14.3107 1.35059 14.7533 1.35059 15.2745C1.35059 15.7899 1.66506 16.2325 2.1164 16.4218V16.4451L13.886 22.458L13.8977 22.4522C14.2354 22.624 14.6111 22.7288 15.0158 22.7288C15.4206 22.7288 15.7962 22.624 16.134 22.4522L16.1456 22.458L27.9152 16.4451V16.4218C28.3666 16.2325 28.6811 15.7899 28.6811 15.2745C28.6811 14.7533 28.3607 14.3107 27.9065 14.1273Z" fill="#2FA8FF"/>
<path d="M27.9065 21.5816L25.6062 20.3994C21.9955 22.2484 17.0716 24.7613 17.0133 24.7846C16.3727 25.0699 15.703 25.2126 15.0158 25.2126C14.3257 25.2126 13.6531 25.067 13.0125 24.7817C12.9572 24.7613 8.03615 22.2484 4.42548 20.3994L2.12513 21.5816C1.67089 21.765 1.35059 22.2076 1.35059 22.7288C1.35059 23.2442 1.66506 23.6868 2.1164 23.8761V23.8994L13.886 29.9123L13.8977 29.9065C14.2354 30.0783 14.6111 30.1831 15.0158 30.1831C15.4206 30.1831 15.7962 30.0783 16.134 29.9065L16.1456 29.9123L27.9152 23.8994V23.8761C28.3666 23.6868 28.6811 23.2442 28.6811 22.7288C28.6811 22.2076 28.3607 21.765 27.9065 21.5816Z" fill="#3CD0FF"/>
<path d="M43.7136 23H38.218V6.78218H43.8245C45.4347 6.78218 46.8178 7.10685 47.974 7.7562C49.1354 8.40027 50.0276 9.32677 50.6506 10.5357C51.2735 11.7447 51.585 13.1912 51.585 14.8753C51.585 16.5646 51.2709 18.0164 50.6426 19.2306C50.0197 20.4448 49.1196 21.3766 47.9423 22.026C46.7703 22.6753 45.3608 23 43.7136 23ZM41.1559 20.458H43.5711C44.7009 20.458 45.6432 20.2522 46.3981 19.8404C47.1531 19.4233 47.7206 18.803 48.1007 17.9794C48.4808 17.1506 48.6708 16.1159 48.6708 14.8753C48.6708 13.6346 48.4808 12.6052 48.1007 11.7869C47.7206 10.9633 47.1583 10.3483 46.414 9.9418C45.6749 9.53002 44.7563 9.32413 43.6582 9.32413H41.1559V20.458ZM57.7498 23.2455C56.979 23.2455 56.2848 23.1082 55.6672 22.8337C55.0548 22.5539 54.5691 22.1421 54.2101 21.5984C53.8564 21.0546 53.6795 20.3841 53.6795 19.587C53.6795 18.9007 53.8062 18.3332 54.0596 17.8844C54.313 17.4357 54.6588 17.0767 55.097 16.8075C55.5352 16.5382 56.0288 16.335 56.5778 16.1977C57.1321 16.0552 57.7049 15.9522 58.2962 15.8889C59.0089 15.815 59.587 15.749 60.0304 15.6909C60.4739 15.6275 60.7959 15.5325 60.9965 15.4058C61.2024 15.2738 61.3054 15.0706 61.3054 14.7961V14.7486C61.3054 14.152 61.1285 13.6901 60.7748 13.3628C60.4211 13.0354 59.9117 12.8718 59.2465 12.8718C58.5443 12.8718 57.9874 13.0249 57.5756 13.3311C57.1691 13.6373 56.8946 13.9989 56.752 14.416L54.0755 14.0359C54.2866 13.2968 54.6351 12.6791 55.1208 12.1828C55.6064 11.6813 56.2004 11.3065 56.9025 11.0584C57.6046 10.805 58.3807 10.6783 59.2306 10.6783C59.8166 10.6783 60.4 10.7469 60.9807 10.8841C61.5614 11.0214 62.092 11.2484 62.5724 11.5652C63.0528 11.8766 63.4382 12.3016 63.7286 12.8401C64.0242 13.3786 64.172 14.0517 64.172 14.8594V23H61.4162V21.3291H61.3212C61.147 21.667 60.9015 21.9837 60.5848 22.2794C60.2733 22.5697 59.88 22.8047 59.4049 22.9842C58.935 23.1584 58.3833 23.2455 57.7498 23.2455ZM58.4942 21.1391C59.0696 21.1391 59.5685 21.0256 59.9909 20.7986C60.4132 20.5663 60.7379 20.2601 60.9649 19.88C61.1972 19.4999 61.3133 19.0854 61.3133 18.6367V17.2034C61.2236 17.2773 61.0705 17.3459 60.854 17.4093C60.6428 17.4726 60.4053 17.5281 60.1413 17.5756C59.8774 17.6231 59.616 17.6653 59.3573 17.7023C59.0987 17.7392 58.8743 17.7709 58.6842 17.7973C58.2566 17.8554 57.8739 17.9504 57.536 18.0824C57.1981 18.2144 56.9315 18.3991 56.7362 18.6367C56.5409 18.869 56.4432 19.1699 56.4432 19.5395C56.4432 20.0674 56.6359 20.466 57.0213 20.7352C57.4067 21.0044 57.8976 21.1391 58.4942 21.1391ZM76.668 14.0517L74.0547 14.3368C73.9808 14.0728 73.8515 13.8247 73.6667 13.5924C73.4872 13.3601 73.2444 13.1727 72.9382 13.0302C72.632 12.8876 72.2572 12.8163 71.8137 12.8163C71.2172 12.8163 70.7156 12.9457 70.3091 13.2044C69.9079 13.4631 69.7099 13.7983 69.7152 14.2101C69.7099 14.5638 69.8393 14.8515 70.1032 15.0732C70.3725 15.295 70.8159 15.4771 71.4336 15.6196L73.5083 16.0631C74.6592 16.3112 75.5145 16.7045 76.0741 17.243C76.6389 17.7815 76.924 18.4863 76.9293 19.3573C76.924 20.1228 76.6996 20.7986 76.2562 21.3846C75.818 21.9653 75.2083 22.4193 74.4269 22.7466C73.6456 23.0739 72.7481 23.2376 71.7345 23.2376C70.2458 23.2376 69.0474 22.9261 68.1394 22.3031C67.2313 21.6749 66.6902 20.8012 66.516 19.682L69.3113 19.4128C69.438 19.9618 69.7073 20.3762 70.1191 20.656C70.5309 20.9358 71.0667 21.0757 71.7266 21.0757C72.4076 21.0757 72.954 20.9358 73.3658 20.656C73.7829 20.3762 73.9914 20.0304 73.9914 19.6186C73.9914 19.2702 73.8568 18.9825 73.5875 18.7555C73.3236 18.5285 72.9118 18.3543 72.3522 18.2328L70.2774 17.7973C69.1107 17.5545 68.2476 17.1453 67.688 16.5699C67.1284 15.9892 66.8512 15.2554 66.8565 14.3684C66.8512 13.6188 67.0545 12.9694 67.4663 12.4204C67.8833 11.8661 68.4614 11.4385 69.2005 11.1376C69.9449 10.8314 70.8027 10.6783 71.7741 10.6783C73.1995 10.6783 74.3213 10.9818 75.1396 11.5889C75.9632 12.196 76.4726 13.017 76.668 14.0517ZM82.1597 15.873V23H79.2931V6.78218H82.0963V12.9035H82.2389C82.524 12.2172 82.9648 11.676 83.5613 11.2801C84.1632 10.8789 84.9287 10.6783 85.8578 10.6783C86.7025 10.6783 87.4389 10.8551 88.0672 11.2088C88.6954 11.5625 89.1811 12.0799 89.5242 12.7609C89.8727 13.4419 90.0469 14.2734 90.0469 15.2554V23H87.1802V15.6988C87.1802 14.8805 86.9691 14.2444 86.5467 13.7904C86.1297 13.3311 85.5437 13.1014 84.7888 13.1014C84.2819 13.1014 83.8279 13.2123 83.4267 13.434C83.0308 13.6505 82.7193 13.9646 82.4923 14.3764C82.2706 14.7881 82.1597 15.287 82.1597 15.873ZM95.8356 6.78218V23H92.9689V6.78218H95.8356ZM100.565 27.5613C100.174 27.5613 99.8128 27.5296 99.4802 27.4662C99.1529 27.4082 98.8916 27.3395 98.6962 27.2603L99.3614 25.0272C99.7785 25.1486 100.151 25.2067 100.478 25.2014C100.805 25.1962 101.093 25.0932 101.341 24.8926C101.595 24.6973 101.808 24.37 101.983 23.9107L102.228 23.2534L97.8173 10.8366H100.858L103.661 20.0225H103.788L106.599 10.8366H109.648L104.778 24.4729C104.551 25.117 104.25 25.6687 103.875 26.1279C103.5 26.5925 103.041 26.9462 102.497 27.1891C101.959 27.4372 101.315 27.5613 100.565 27.5613ZM119.745 6.78218L123.316 12.7213H123.443L127.03 6.78218H130.38L125.383 14.8911L130.459 23H127.054L123.443 17.1005H123.316L119.705 23H116.316L121.439 14.8911L116.379 6.78218H119.745Z" fill="#0B0E2C"/>
</g>
<defs>
<clipPath id="clip0_2616_30696">
<rect width="132" height="30" fill="white"/>
</clipPath>
</defs>
</svg>
